<?xml version="1.0" standalone="no"?>
<!DOCTYPE svg PUBLIC "-//W3C//DTD SVG 1.1//EN" "http://www.w3.org/Graphics/SVG/1.1/DTD/svg11.dtd" >
<svg xmlns="http://www.w3.org/2000/svg">
<metadata>
Created by FontForge 20120731 at Mon Feb 27 14:31:31 2017
 By admin
</metadata>
<defs>
<font id="iconfont" horiz-adv-x="1024" >
  <font-face 
    font-family="iconfont"
    font-weight="500"
    font-stretch="normal"
    units-per-em="1024"
    panose-1="2 0 6 3 0 0 0 0 0 0"
    ascent="896"
    descent="-128"
    x-height="792"
    bbox="0 -221.615 1428 954"
    underline-thickness="0"
    underline-position="0"
    unicode-range="U+0078-E79E"
  />
<missing-glyph 
 />
    <glyph glyph-name=".notdef" 
 />
    <glyph glyph-name=".notdef" 
 />
    <glyph glyph-name=".null" horiz-adv-x="0" 
 />
    <glyph glyph-name="nonmarkingreturn" horiz-adv-x="341" 
 />
    <glyph glyph-name="x" unicode="x" horiz-adv-x="1001" 
d="M281 543q-27 -1 -53 -1h-83q-18 0 -36.5 -6t-32.5 -18.5t-23 -32t-9 -45.5v-76h912v41q0 16 -0.5 30t-0.5 18q0 13 -5 29t-17 29.5t-31.5 22.5t-49.5 9h-133v-97h-438v97zM955 310v-52q0 -23 0.5 -52t0.5 -58t-10.5 -47.5t-26 -30t-33 -16t-31.5 -4.5q-14 -1 -29.5 -0.5
t-29.5 0.5h-32l-45 128h-439l-44 -128h-29h-34q-20 0 -45 1q-25 0 -41 9.5t-25.5 23t-13.5 29.5t-4 30v167h911zM163 247q-12 0 -21 -8.5t-9 -21.5t9 -21.5t21 -8.5q13 0 22 8.5t9 21.5t-9 21.5t-22 8.5zM316 123q-8 -26 -14 -48q-5 -19 -10.5 -37t-7.5 -25t-3 -15t1 -14.5
t9.5 -10.5t21.5 -4h37h67h81h80h64h36q23 0 34 12t2 38q-5 13 -9.5 30.5t-9.5 34.5q-5 19 -11 39h-368zM336 498v228q0 11 2.5 23t10 21.5t20.5 15.5t34 6h188q31 0 51.5 -14.5t20.5 -52.5v-227h-327z" />
    <glyph glyph-name="jiaoyiguanli" unicode="&#xe658;" 
d="M521 176l47 -49l-30 -32q-3 -2 -6 -7t-2 -19.5t14 -28.5l241 -249q1 -1 2.5 -2t7 -4t10.5 -4t13 0.5t15 6.5l120 122q3 3 5.5 8.5t1.5 20.5t-14 27l-238 245l-3 3t-8 5t-12 4.5t-15 -0.5t-17 -8l-31 -33l-50 51zM488 319l-258 264v82l-152 93l-75 -76l91 -152h81
l254 -260zM72 -126v4.5t2.5 9.5t6.5 12.5t12 10t20 4.5q1 0 3.5 -0.5t9 -3t11.5 -6t9 -12t4 -19.5v-3.5t-2.5 -9t-6 -12t-11.5 -9.5t-19 -5l-34 -35q2 -2 6 -5t15.5 -8.5t23 -7.5t28.5 2.5t33 18.5l459 512q6 -4 16 -10t43 -15.5t67 -8.5q3 -1 10 -0.5t26.5 3.5t38.5 8.5
t44 18.5t45 31q6 5 15 14t29.5 38.5t32 61.5t12 81.5t-19.5 99.5l-165 -165l-139 143l165 164q-5 3 -12.5 6.5t-33.5 9.5t-53 5.5t-67.5 -12.5t-79.5 -38q-3 -2 -8 -6t-19 -18.5t-25.5 -30.5t-24 -41.5t-18.5 -51.5q-2 -5 -3.5 -13.5t-3.5 -33.5t0.5 -49.5t14.5 -58
t32 -61.5l-516 -441q-1 -1 -3 -3.5t-7 -11t-7 -17t-3.5 -22.5t4.5 -27l43 13v0zM72 -126q0 -1 0.5 -4t3 -9.5t6.5 -11.5t11.5 -9.5t17.5 -4.5l-34 -35q-44 40 -48 61l43 13v0zM72 -126z" />
    <glyph glyph-name="shezhi" unicode="&#xe64b;" 
d="M512 198q76 0 129 54.5t53 131.5t-53.5 131.5t-128.5 54.5q-76 0 -129 -54.5t-53 -131.5t53.5 -131.5t128.5 -54.5v0zM512 250q-55 0 -94.5 39.5t-39.5 94.5t39.5 94.5t94.5 39.5t94.5 -39.5t39.5 -94.5t-39.5 -94.5t-94.5 -39.5v0zM249 53q51 -42 112 -67
q66 60 150.5 60t150.5 -60q65 25 112 67q-19 80 22 163q47 79 128 102q7 45 7 67.5t-7 67.5q-81 24 -128 102q-43 73 -22 163q-51 42 -112 68q-66 -61 -150.5 -61t-150.5 61q-65 -25 -112 -68q19 -80 -22 -163q-48 -78 -128 -102q-7 -45 -7 -67.5t7 -67.5q80 -23 128 -102
q41 -83 22 -163zM361 -62q-87 30 -150 89q-12 12 -7 23q25 74 -16 140q-39 69 -112 84q-16 5 -16 19q-9 43 -9 89q0 42 9 90q5 13 16 19q79 21 112 83q37 64 16 141q-5 17 7 23q62 53 150 89q12 4 22 -6q58 -58 128 -58q80 0 128 58q12 12 23 6q87 -30 150 -89q12 -12 7 -23
q-25 -74 16 -141q39 -68 112 -83q16 -5 16 -19q9 -43 9 -90q0 -41 -9 -89q-5 -14 -16 -19q-79 -21 -112 -84q-37 -63 -16 -140q5 -17 -7 -23q-62 -53 -150 -89q-12 -4 -23 6q-57 58 -128 58q-80 0 -128 -58q-6 -6 -16 -6h-6z" />
    <glyph glyph-name="shouhuodizhi" unicode="&#xe64e;" 
d="M518 848q-105 0 -195 -52.5t-142.5 -143.5t-52.5 -198q0 -63 42 -156q36 -74 118 -183q32 -38 109 -121l35 -36q2 -2 5.5 -5t5.5 -4.5t2 -2.5v0q29 -29 70 -29t67 29v0h1l1 1l1 1v1h1l1 1l1 1l1 1v1h1l1 1l1 1l1 1l1 1l1 1l35 36q39 38 109 121q79 94 119 183
q41 83 41 156q4 80 -25 153.5t-81 126t-124 83.5t-151 31zM822 320q-38 -82 -115 -173q-70 -83 -105 -118l-36 -35l-1 -2l-1 -1l-1 -1l-1 -1l-2 -1l-1 -1l-1 -2l-1 -1l-1 -1l-1 -1l-1 -1q-15 -15 -35.5 -15t-35.5 15v0l-1 1l-1 1v0l-1 1l-1 1l-1 1l-2 2l-1 1l-1 1l-1 1v0
l-1 1l-2 2l-35 35q-6 7 -32.5 35t-42.5 46t-30 37q-72 91 -116 173q-38 77 -38 134q0 95 46 174.5t124.5 125.5t171.5 46t172 -46t125 -125.5t46 -174.5q0 -57 -39 -134zM518.5 634q-71.5 0 -120.5 -50.5t-49 -122.5t50 -122.5t119.5 -50.5t119.5 50.5t50 122.5t-49 122.5
t-120.5 50.5zM518.5 339q-50.5 0 -86 36t-35.5 89t35.5 89t86 36t86 -36t35.5 -89t-35.5 -89t-86 -36z" />
    <glyph glyph-name="wodedingdan" unicode="&#xe655;" 
d="M883 835h-89q-11 0 -18.5 -7t-7.5 -18q0 -26 26 -26h89q19 0 33.5 -14.5t14.5 -33.5v-714q0 -19 -14.5 -33.5t-33.5 -14.5h-736q-19 0 -33.5 14.5t-14.5 33.5v714q0 19 14.5 33.5t33.5 14.5h99q11 0 18.5 7t7.5 19q0 25 -26 25h-99q-41 0 -68.5 -27.5t-27.5 -68.5v-713
q0 -41 27.5 -68.5t68.5 -27.5h736q41 0 68.5 27.5t27.5 68.5v713q0 40 -28.5 68t-67.5 28zM394 787h240q10 0 17.5 7t7.5 19q0 25 -25 25h-240q-11 0 -18.5 -7t-7.5 -18.5t7.5 -18.5t18.5 -7zM294 550h464q11 0 18.5 7.5t7.5 18.5q0 26 -26 26h-464q-10 0 -17.5 -7.5
t-7.5 -18.5q0 -26 25 -26zM294 355h464q11 0 18.5 7t7.5 19q0 25 -26 25h-464q-10 0 -17.5 -7t-7.5 -18q0 -26 25 -26zM294 160h464q11 0 18.5 7t7.5 19q0 25 -26 25h-464q-10 0 -17.5 -7t-7.5 -18q0 -26 25 -26z" />
    <glyph glyph-name="wodejuhuasuan" unicode="&#xe659;" 
d="M621 410q42 29 67.5 75t25.5 97q0 89 -62.5 150.5t-149.5 61.5q-86 0 -148.5 -62.5t-62.5 -149.5q0 -54 26.5 -101.5t69.5 -74.5q-156 -36 -253.5 -150t-85.5 -256v0v0q0 -10 3 -13q3 -5 9 -9t10 -4h880q8 0 14 6.5t9 16.5v0v0v0q9 98 -35.5 186t-128 147t-188.5 80z
M336 585.5q0 67.5 48 115.5t115 48t115 -48t48 -115.5t-48 -115.5t-115 -48t-115 48t-48 115.5zM96 26q-5 94 49.5 174.5t151.5 127t212 46.5h3q115 0 212 -46t152 -126.5t52 -175.5h-832z" />
    <glyph glyph-name="xiala" unicode="&#xe65c;" 
d="M787 515q-13 13 -35 13l-480 -3q-22 0 -35 -13q-15 -14 -15 -33.5t15 -33.5l240 -240v0v0q1 -2 6 -5t7 -5l3 -3q12 -5 27 -2.5t24 12.5l240 243q16 16 16 35.5t-13 34.5z" />
    <glyph glyph-name="xiangshangjiantou" unicode="&#xe65d;" 
d="M966 227l-435 432q-7 7 -17.5 7t-17.5 -7l-442 -432q-7 -7 -7 -17.5t7.5 -17.5t17.5 -7t18 7l425 416l416 -416q7 -7 17.5 -7t18 7t7.5 17.5t-8 17.5z" />
    <glyph glyph-name="xiangxiajiantou" unicode="&#xe65e;" 
d="M966 573q-7 7 -17.5 7t-17.5 -7l-416 -416l-425 416q-8 7 -18 7t-17.5 -7t-7.5 -17.5t7 -17.5l442 -432q7 -8 17.5 -8t17.5 8l435 432q15 20 0 35z" />
    <glyph glyph-name="xiangyoujiantou" unicode="&#xe65f;" 
d="M762 406l-432 436q-8 7 -18 7t-17.5 -7.5t-7.5 -17.5t7 -18l416 -416l-416 -425q-7 -7 -7 -17.5t7.5 -18t17.5 -7.5t18 8l432 441q7 7 7 17.5t-7 17.5z" />
    <glyph glyph-name="xiangzuojiantou" unicode="&#xe660;" 
d="M730 -35l-416 425l416 416q7 8 7 18t-7.5 17.5t-17.5 7.5t-18 -7l-432 -436q-7 -7 -7 -17.5t7 -17.5l432 -441q8 -8 18 -8t17.5 7.5t7.5 18t-7 17.5z" />
    <glyph glyph-name="xiaoxizhongxin" unicode="&#xe665;" 
d="M586 -10v0q35 45 41 45q156 29 251 138.5t95 258.5q1 112 -60.5 205.5t-168 147t-232.5 53.5t-233 -53.5t-169 -147t-62 -205.5q0 -149 96 -258.5t250 -138.5q5 0 41 -45v0q27 -35 42.5 -49.5t31.5 -14.5q15 0 30.5 14t46.5 50zM621 93q-14 -2 -26 -14.5t-41 -49.5v0
l-42 -45l-10 10q-6 6 -25 32q-32 40 -44.5 52.5t-26.5 14.5q-138 24 -222.5 119.5t-84.5 225.5q0 95 55.5 176t151.5 128.5t209 47.5t209 -47.5t151.5 -128.5t55.5 -176q-2 -132 -86.5 -226.5t-223.5 -118.5zM282 425.5q0 19.5 13 34t31.5 14.5t31.5 -14.5t13 -34t-13 -33.5
t-31.5 -14t-31.5 14t-13 33.5zM467 425.5q0 19.5 13 34t32 14.5t32 -14.5t13 -34t-13 -33.5t-32 -14t-32 14t-13 33.5zM653 425.5q0 19.5 13 34t31.5 14.5t31.5 -14.5t13 -34t-13 -33.5t-31.5 -14t-31.5 14t-13 33.5z" />
    <glyph glyph-name="jushoucanggift" unicode="&#xe684;" 
d="M893 672q-14 17 -27 31q-52 54 -109 72t-111.5 3t-109.5 -59q-14 -11 -27 -23q-13 12 -27 23q-55 44 -109 59t-111.5 -3t-109.5 -72q-13 -14 -25 -30q-63 -91 -65 -186t48.5 -182t149.5 -173q60 -53 133 -100q22 -15 43 -27q11 -6 17 -9q7 -5 15 -7q5 -3 12 -5
q19 -5 44 -1.5t42 13.5q4 2 16 9q21 12 44 27q72 47 133 100q98 86 148.5 173t49 181.5t-63.5 185.5z" />
    <glyph glyph-name="guanli" unicode="&#xe72c;" 
d="M522 -79q-126 0 -229.5 18t-162.5 52q-51 28 -44 95v2q0 1 0.5 4.5t0.5 4.5q2 53 44.5 102t103.5 82t133 53l26 -65q-106 -30 -178 -90q-79 -68 -32 -116q63 -62 339 -63q89 0 259 24l13 -76q-119 -27 -273 -27v0zM523 209q-68 0 -126 42t-91.5 114.5t-33.5 156.5
q-1 131 72.5 223t178.5 92q68 0 126 -42t92 -114.5t34 -156.5q0 -130 -74 -222.5t-178 -92.5v0zM520 764q-76 0 -130.5 -70.5t-54.5 -171t54.5 -171t131 -70.5t131 70.5t54.5 171.5q-1 100 -55 170.5t-131 70.5v0zM852 -49q-9 0 -15.5 7t-6.5 17v183q0 10 6.5 17t15.5 7
t15.5 -7t6.5 -17v-182q0 -11 -6 -18t-16 -7v0v0zM939 147h-177q-11 0 -19 9t-8 21t8 21.5t19 9.5h177q10 0 18 -9.5t8 -21.5q0 -13 -7.5 -21.5t-18.5 -8.5v0v0zM851 165q-13 0 -21 8q-8 9 -8 21t8 21l84 91q8 9 19.5 9t20 -9t8.5 -21.5t-8 -21.5l-84 -90q-5 -8 -19 -8v0v0z
M851 165q-13 0 -21 8l-83 90q-9 9 -9 21.5t8.5 21.5t20 9t19.5 -9l84 -91q9 -9 9 -21t-9 -21q-5 -8 -19 -8v0v0zM939 43h-177q-11 0 -19 9t-8 21.5t8 21.5t19 9h177q10 0 18 -9t8 -21.5t-8 -21.5t-18 -9v0v0z" />
    <glyph glyph-name="chengjiguanli" unicode="&#xe501;" 
d="M465 269q-3 -1 -6 -1v0v0h-1h1q-14 0 -23.5 11.5t-11.5 26.5q-4 38 28 81q16 23 44 40q-28 -17 -44 -40q-32 -43 -28 -81q2 -15 11.5 -26.5t23.5 -11.5q2 0 6 1q41 7 67 47t22 78q-2 17 -10 22q-2 1 -5 2v0v0l5 3q2 1 2 2q-1 5 -9 10t-15 5v0q-5 -1 -11 -3v0v0l-2 -1
h-0.5t-0.5 -0.5t-0.5 -0.5h-0.5v0l-4 -2q-1 -1 -3 -2l-2 -1q2 1 5 3l4 2h-1q-2 -1 -9 -5l-1 -1v0l-1 -1q-27 -17 -44 -39q-31 -43 -27 -81q2 -15 11.5 -26.5t22.5 -11.5q3 0 7 1q39 7 64.5 43t24.5 73q0 -37 -25 -73t-64 -43zM452 308v-1q1 -5 3 -10q-2 4 -3 10v1zM512 435
v0h-1h1zM508 399v0q0 -2 2 -3q0 -1 1 -1t6 5t8 6q-3 -1 -8 -6t-6 -5h-1h1.5t5.5 5t8 5h2q2 0 4 -1l-4 2q4 -1 7 -5q2 -4 2 -9v-1q1 -23 -25 -59l-22 -25l-2 -2q-3 -3 -5 -4l-1 -1q-2 -1 -3 -2l-1 -1q-10 -7 -15 -7q-3 0 -5 2q0 1 -1 2q1 -2 1.5 -2h0.5h-1l-0.5 0.5t-0.5 1
t-0.5 1.5t-0.5 2q-2 5 -2 11v1q-1 20 13 44.5t42 45.5v0v0zM455 297q0 -2 1 -3q-1 1 -1 3zM498 428l-2 -1zM479 299h1h-1zM550 409q3 -5 4 -14q-1 9 -4 14zM353 480h141q9 0 9 9v1q0 3 -3 6t-6 3h-141q-2 0 -4 -1h-1v0l-3 -3q-1 -3 -1 -5v0v-1q0 -9 9 -9zM315 272v0
q-1 24 11 49q-12 -26 -11 -49v0v0zM353 528h282q4 0 6 2q3 3 4 7v0v1q0 9 -10 9v0q9 0 9 -9q0 9 -9 9h-282q-2 0 -4 -1h-1v0l-3 -3q-1 -2 -1 -5v0v-1q0 -9 9 -9zM342 250q3 0 3 3v0v0v1v1t-0.5 3.5t-0.5 3.5h-1v4q0 5 2 12q4 15 13 37q3 7 7 15q31 69 31 73v3q-1 4 -5 10
t-8 5q-7 0 -41 -25q-10 -8 -10 -14v-1q0 -4 3 -4q2 0 6 3l23 11l-23 -11l23 11v0q-23 -38 -38 -70q-12 -25 -11 -49v-1v-1q1 -10 14 -15q6 -2 8 -3q2 -2 5 -2q2 1 3 3q0 -2 -3 -3q-2 0 -5 2q-2 1 -8 3q-13 4 -14 15v2v0v-3q0 -4 2.5 -7t4.5 -4.5t7.5 -3t7.5 -2.5q4 -2 5 -2z
M681 444q3 -3 4 -6q0 -1 -1.5 -2t-3 -1.5t-2.5 -1.5q1 1 2.5 1.5t3 1.5t1.5 2q-1 3 -6 7.5t-11 6.5q7 -2 13 -8zM674 411l-2 4zM597 283h6h-6zM665 420v0v0zM670 418v0v0zM670 418q-2 2 -4 2q2 0 4 -2zM602 416q-7 -7 -12 -14q-31 -43 -27 -81q2 -15 11.5 -26.5t22.5 -11.5
h6q42 8 68 48t21 78q-2 21 -15 24q1 1 4.5 2.5t3.5 2.5q-1 3 -4 6q-9 9 -20 9h1h-1h-1q-9 -1 -26 -11.5t-32 -25.5q-4 -4 -8 -9q4 5 8 9zM649 347q26 35 26 58q1 -22 -26 -58zM626 397q10 9 21 17v0v0v-3q1 -1 2 -1t4 3q-3 -3 -4 -3h1l3 3l5 5q3 2 6 2q3 1 6 -2q1 -1 1 -2
q1 0 1 -1q2 -3 3 -7q-1 2 -1 3v-3q1 0 1 -0.5v-1.5v-1v0v0q0 -22 -26 -58l-21 -24q-5 -5 -13.5 -11t-13.5 -7q-4 0 -7 5q3 -6 7 -5q5 0 14 7q8 5 13 10q-5 -5 -13 -10q-9 -7 -14 -7q-5 -1 -7.5 5.5t-2.5 12.5v0v-1v1v2q0 21 13.5 45t42.5 44v0q-11 -8 -21 -17
q-35 -34 -35 -72q-1 37 35 72zM563 321q2 -15 11.5 -26.5t22.5 -11.5q-13 0 -22.5 11.5t-11.5 26.5q-4 38 27 81q-31 -44 -27 -81zM343 262v1v0v-1v0zM403 190q-3 -2 -7 -3q4 1 7 3zM410 192q-3 -1 -7 -2q4 1 7 2zM504.5 880q-102.5 0 -196 -40t-160.5 -107.5t-107 -161
t-40 -196t40 -195.5t107 -160.5t160.5 -107.5t196 -40t195.5 40t160.5 107.5t107.5 160.5t40 195.5t-40 196t-107.5 161t-160.5 107.5t-195.5 40zM730 591v-454h-425q-11 0 -18.5 7t-7.5 17v430q0 9 6.5 16t16.5 7h405q10 0 16.5 -7t6.5 -16zM647 244h-3v0h-1h1l27 4
q-190 -12 -309 -63q-5 -2 -5 -3l-3 -4q0 -2 3 -4q2 0 8 2l12 4l5 2q65 23 147.5 39.5t116 20.5t53.5 6v0v0q-18 -1 -52 -4zM410 192q62 19 136 33t111 18.5t43 4.5h-1q-150 -12 -289 -56zM671 263l-56 -4l27 4q-57 -4 -110 -12t-88.5 -17t-62.5 -17.5t-40 -13.5t-13 -6
l-3 -4q0 -2 3 -4q3 -1 21 6q-14 -6 -19 -6q5 0 19 6l5 2q65 23 144.5 39.5t125.5 21.5zM512 435q5 2 10 3q-4 0 -10 -3zM509 434v0v0v0zM602 416v0q15 15 32 25.5t27 11.5v0q-10 -1 -27 -11.5t-32 -25.5zM503 490q0 9 -9 9q9 0 9 -9zM357 174q-2 1 -2 2q0 -1 2 -2zM355 176
q-1 1 -1 2q0 -1 1 -2zM699 248v0h1h-1zM647 244q34 3 52 4h1q-20 -1 -56 -4v0v0h3zM325 192q0 -2 3 -3q-3 1 -3 3zM345 255v-1v0v1zM343 262h1h-1zM343 266v-3v1v2zM332 382q0 7 10 14q-10 -7 -10 -14zM326 321q16 34 38 70q-23 -37 -38 -70zM678 433v0v0zM693 409
q-3 22 -15 24q12 -3 15 -24zM662 453q3 0 6 -1q-3 1 -6 1zM674 408q0 -1 0.5 -1t0.5 -2v0v2.5t-1 0.5zM664 420h1h-1zM670 418v0v0zM666 420h-1h1zM672 416l-2 2v0zM649 410v0q-1 0 -2 1v3v0q0 -5 2 -4zM594 310q-3 5 -3 12q0 -7 3 -12zM674 411v0v0zM672 415v0v1v-1z
M348 546v0h1q2 1 4 1q-9 0 -9 -9q0 3 1 5t3 3zM641 530q-2 -2 -6 -2q10 0 10 9v0q-1 -4 -4 -7zM507 433q1 0 2 1q-1 0 -1.5 -0.5zM507 433v0v0v0zM496 427v0v0v0v0v0v0zM523 438q10 1 19 -9q-9 10 -19 9zM542 429q4 -3 4 -6q0 3 -4 6zM554 394v1v-1v-9v9zM539 418q3 0 5 -2
q4 -2 6 -7q-3 8 -11 9q1 1 3 1.5t3 1.5t1 2q0 -1 -2 -2l-2 -1q-3 -1 -3 -2zM459 268v0v0zM476 297q1 0 2 0.5t1 1.5q-1 -1 -3 -2zM480 299l0.5 0.5l1.5 1.5zM510 395v1q-2 1 -2 3v0q0 -3 2 -4zM458 292q2 -2 4 -2q-2 0 -4 2zM536 392q0 5 -2 9l-3 3q4 -4 5 -12zM536 391
q1 -22 -25 -59q9 12 17.5 30t7.5 29zM348 498v0h1q2 1 4 1q-9 0 -9 -9q0 2 1 5q1 2 3 3zM503 489q0 -4 -3 -7t-6 -3q9 0 9 10zM365 330q31 68 31 73q0 -4 -31 -73zM343 266q1 19 22 64q-3 -7 -7 -15q-9 -22 -13 -37q-2 -7 -2 -12zM315 272v0v0v0v0zM330 189h-2h2z" />
    <glyph glyph-name="guanli1" unicode="&#xe502;" 
d="M919 650l-162 162q-16 17 -40 17t-40 -17l-162 -162q-17 -16 -17 -40t17 -41l162 -161q16 -17 40 -17t40 17l162 161q17 17 17 41t-17 40v0zM717 448l-162 162l162 162l162 -162zM374 781h-229q-23 0 -40 -16.5t-17 -40.5v-228q0 -24 17 -41t40 -17h229q24 0 40.5 17
t16.5 41v228q0 24 -16.5 40.5t-40.5 16.5v0zM374 324h-229q-23 0 -40 -16.5t-17 -40.5v-229q0 -23 17 -40t40 -17h229q24 0 40.5 17t16.5 40v229q0 24 -16.5 40.5t-40.5 16.5v0zM831 324h-228q-24 0 -41 -16.5t-17 -40.5v-229q0 -23 17 -40t41 -17h228q24 0 41 17t17 40v229
q0 24 -17 40.5t-41 16.5v0z" />
    <glyph glyph-name="id-37" unicode="&#xe650;" 
d="M727 828h-543q-28 0 -48 -20t-20 -49v-756q0 -28 20 -48t48 -20h645q29 0 49 20t20 48v656zM828 -80h-644q-36 0 -60.5 24.5t-24.5 60.5v754q0 36 24.5 61t60.5 25h543q7 0 12 -5l169 -169q5 -5 5 -12v-654q0 -36 -24.5 -60.5t-60.5 -24.5zM184 811q-21 0 -36 -15
t-15 -37v-756q0 -21 15 -36t36 -15h645q22 0 37 15t15 36v649l-161 159h-536zM295 361.5q0 -87.5 62 -149.5t150 -62t150 62t62 149.5t-62 149.5t-150 62t-150 -62t-62 -149.5zM507 133q-95 0 -162 67t-67 162t67 162t161.5 67t161 -67t66.5 -162t-67 -162t-160 -67z
M507 556q-81 0 -138 -57t-57 -137.5t57 -137.5t138 -57t137.5 57t56.5 138q0 80 -57 137t-137 57zM785 660h111l-167 168v-111q1 -24 17 -40.5t39 -16.5zM896 643h-111q-31 0 -52 21.5t-21 52.5v109q0 13 10 15q10 6 19 -3l167 -167q8 -9 3 -19q-2 -9 -15 -9zM748 785v-70
q0 -17 11 -28t28 -11h70zM505 398q-7 0 -12 5l-82 82q-12 12 0 24t24 0l82 -82q12 -12 0 -24q-5 -5 -12 -5zM507 398q-7 0 -12 5q-12 12 0 24l82 82q12 12 24 0t0 -24l-82 -84q-7 -3 -12 -3zM614 393h-216q-17 0 -17 17t17 17h216q17 0 17 -17t-17 -17zM638 292h-264
q-17 0 -17 17t17 17h263q17 0 17 -17q0 -8 -4.5 -12.5t-11.5 -4.5zM507 193q-17 0 -17 17v203q0 17 17 17t17 -17v-203q0 -7 -5 -12t-12 -5z" />
    <glyph glyph-name="id-132" unicode="&#xe656;" 
d="M800 -48h-665q-26 0 -44 18t-18 44v768q0 25 18 43t44 18h665q26 0 44 -18t18 -43v-768q0 -25 -18 -43.5t-44 -18.5zM548 -53h-411q-29 0 -49 20t-20 48v756q0 29 20 49t49 20h665q28 0 48 -20t20 -49v-416zM548 -70h-411q-36 0 -61 25t-25 60v756q0 36 25 61t61 25h665
q36 0 60.5 -25t24.5 -61v-416q0 -17 -17 -17t-17 17v416q0 22 -14.5 37t-36.5 15h-665q-22 0 -37 -15t-15 -37v-756q0 -21 15 -36t37 -15h409q17 0 17 -17q0 -7 -4.5 -12t-10.5 -5zM795 382h-650q-8 0 -12.5 5t-4.5 12q0 17 17 17h650q17 0 17 -17t-17 -17zM444 225h-297
q-17 0 -17 17q0 8 4.5 12.5t12.5 4.5h297q17 0 17 -17q0 -7 -5 -12t-12 -5zM469.5 645q-6.5 0 -12.5 5l-73 74q-12 12 0 23.5t24 0.5l73 -74q12 -12 0 -24q-5 -5 -11.5 -5zM471 645q-7 0 -12 5q-12 12 0 24l73 74q12 11 24 -0.5t0 -23.5l-73 -74q-5 -5 -12 -5zM567 642h-193
q-17 0 -17 17t17 17h194q17 0 17 -17q0 -8 -5.5 -12.5t-12.5 -4.5zM587 551h-234q-17 0 -17 17t17 17h234q17 0 17 -17q0 -7 -5 -12t-12 -5zM469 444q-17 0 -17 17v201q0 17 17 17t17 -17v-201q0 -8 -4.5 -12.5t-12.5 -4.5zM561 119q0 -77 55 -132t133 -55t133 55t55 132v0
q0 78 -55 133t-133 55t-133 -55t-55 -133v0zM749.5 -85q-84.5 0 -145 60t-60.5 144.5t60.5 144.5t145 60t144.5 -60t60 -144.5t-60 -144.5t-144.5 -60zM749.5 288q-70.5 0 -120.5 -50t-50 -120.5t50 -120.5t120.5 -50t120.5 50t50 120.5t-50 120.5t-120.5 50zM853 138h-206
q-17 0 -17 17t17 17h206q17 0 17 -17q0 -7 -5 -12t-12 -5zM853.5 140q-6.5 0 -12.5 5l-56 56q-12 12 0 24t24 0l56 -56q12 -12 0 -24q-5 -5 -11.5 -5zM853 63h-206q-17 0 -17 17t17 17h206q17 0 17 -17q0 -7 -5 -12t-12 -5zM703 5q-7 0 -12 5l-56 57q-12 12 0 23.5t24 -0.5
l56 -56q12 -12 0 -24q-5 -5 -12 -5z" />
    <glyph glyph-name="id-160" unicode="&#xe65a;" 
d="M290 -63h-196q-14 0 -24 10t-10 24v828q0 14 10 24t24 10h196q14 0 24 -10t10 -24v-828q0 -14 -10 -24t-24 -10zM290 -80h-196q-22 0 -36.5 14.5t-14.5 36.5v828q0 21 14.5 36t36.5 15h196q22 0 36.5 -15t14.5 -36v-828q0 -21 -15 -36t-36 -15zM94 816q-17 0 -17 -17
v-828q0 -17 17 -17h196q17 0 17 17v828q0 17 -17 17h-196zM602 -63h-196q-14 0 -24 10t-10 24v828q0 14 10 24t24 10h196q15 0 25 -10t10 -24v-828q0 -14 -10 -24t-25 -10zM602 -80h-196q-22 0 -36.5 14.5t-14.5 36.5v828q0 21 14.5 36t36.5 15h196q22 0 37 -15t15 -36v-828
q0 -21 -15.5 -36t-36.5 -15zM406 816q-17 0 -17 -17v-828q0 -8 5 -12.5t12 -4.5h196q18 0 18 17v828q0 17 -18 17h-196zM916 -63h-196q-14 0 -24 10t-10 24v828q0 14 10 24t24 10h196q15 0 25 -10t10 -24v-828q0 -14 -10 -24t-25 -10zM916 -80h-196q-22 0 -36.5 14.5
t-14.5 36.5v828q0 21 14.5 36t36.5 15h196q22 0 37 -15t15 -36v-828q0 -21 -15.5 -36t-36.5 -15zM720 816q-17 0 -17 -17v-828q0 -17 17 -17h196q18 0 18 17v828q0 17 -18 17h-196zM270 222h-156q-17 0 -17 17q0 8 5 12.5t12 4.5h156q17 0 17 -17q0 -7 -5.5 -12t-11.5 -5z
M270 128h-156q-17 0 -17 17q0 8 5 12.5t12 4.5h156q17 0 17 -17q0 -7 -5.5 -12t-11.5 -5zM270 34h-156q-17 0 -17 17t17 17h156q17 0 17 -17q0 -7 -5.5 -12t-11.5 -5zM582 222h-155q-17 0 -17 17q0 8 4.5 12.5t12.5 4.5h155q17 0 17 -17q0 -7 -5 -12t-12 -5zM582 128h-155
q-17 0 -17 17q0 8 4.5 12.5t12.5 4.5h155q17 0 17 -17q0 -7 -5 -12t-12 -5zM582 34h-155q-17 0 -17 17q0 8 4.5 12.5t12.5 4.5h155q17 0 17 -17q0 -7 -5 -12t-12 -5zM896 222h-155q-17 0 -17 17t17 17h155q17 0 17 -17q0 -7 -5 -12t-12 -5zM896 128h-155q-17 0 -17 17t17 17
h155q17 0 17 -17q0 -7 -5 -12t-12 -5zM896 34h-155q-17 0 -17 17t17 17h155q17 0 17 -17q0 -7 -5 -12t-12 -5zM744 756h149v-155h-149v155zM910 584h-183v189h183v-189zM761 618h115v121h-115v-121zM430 756h149v-155h-149v155zM596 584h-183v189h183v-189zM447 618h114v121
h-114v-121zM118 756h148v-155h-148v155zM283 584h-182v189h182v-189zM135 618h114v121h-114v-121z" />
    <glyph glyph-name="pinglunguanli" unicode="&#xe60e;" 
d="M512 792q-111 0 -205 -54.5t-148.5 -148.5t-54.5 -205t54.5 -205t148.5 -149t205 -55t205 55t149 149t55 205t-55 205t-149 148.5t-205 54.5zM472 424l172 171l78 -78l-172 -171zM540 335l-110 -31l31 109zM749 213q0 -34 -24 -57.5t-58 -23.5h-326q-34 0 -57.5 23.5
t-23.5 57.5v326q0 34 23.5 58t57.5 24h261l-49 -50h-196q-20 0 -34.5 -14t-14.5 -35v-293q0 -20 14.5 -34.5t34.5 -14.5h294q20 0 34.5 14.5t14.5 34.5v196l49 49v-261v0zM758 552l-24 -23l-78 78l23 23q7 7 15.5 7t15.5 -6l49 -48q6 -6 5.5 -15t-6.5 -16z" />
    <glyph glyph-name="dizhiguanli" unicode="&#xe622;" 
d="M511.5 870q-99.5 0 -184 -49.5t-133.5 -134t-49 -183.5q0 -33 6 -65q8 -48 48.5 -121.5t92 -143.5t101.5 -133.5t85 -102.5l34 -39q13 15 35.5 41t81 98.5t105 137.5t88.5 140t51 123q6 32 6 65q0 99 -49.5 183.5t-134 134t-184 49.5zM511.5 330q-71.5 0 -122 50.5
t-50.5 122t50.5 122.5t122 51t122.5 -51t51 -122.5t-51 -122t-122.5 -50.5z" />
    <glyph glyph-name="zizhiguanli" unicode="&#xe63d;" 
d="M958 79q0 -58 -41.5 -100t-99.5 -42h-610q-58 0 -99.5 42t-41.5 100v615q0 59 41.5 100.5t99.5 41.5h610q58 0 99.5 -41.5t41.5 -100.5v-615zM218 504v-358q3 3 9 8t25.5 18t39 22.5t48.5 15.5t56.5 3.5t59.5 -19.5t61 -48v358q-4 4 -9.5 11t-24 24.5t-37.5 29.5
t-47.5 20.5t-56 4.5t-61 -26t-63.5 -64zM446 274q-36 43 -77 43v0q-21 0 -42.5 -12t-28.5 -19l-11 -11l-23 18q6 7 15 16t36 23t53 14q54 1 100 -53zM446 348q-36 43 -77 43v0q-21 0 -42.5 -11.5t-28.5 -19t-11 -11.5l-23 18q6 7 15 16t36 23t53 14q54 1 100 -53zM446 422
q-36 43 -77 43v0q-21 0 -42.5 -11.5t-28.5 -19t-11 -11.5l-23 18q6 7 15 16t36 23t53 14q54 1 100 -53zM536 504v-358q39 43 84.5 58.5t82 8t67.5 -22.5t48 -29t17 -15v358q-30 42 -63 64.5t-61.5 25t-55.5 -4t-48 -21t-37 -28.5t-25 -25zM771 274q-37 43 -77 43h-1
q-20 0 -41.5 -12t-29 -19t-11.5 -11l-22 18q5 7 14.5 16t36 23t53.5 14q54 1 100 -53zM771 348q-37 43 -77 43h-1q-20 0 -41.5 -11.5t-29 -19l-11.5 -11.5l-22 18q5 7 14.5 16t36 23t53.5 14q54 1 100 -53zM771 422q-37 43 -77 43h-1q-20 0 -41.5 -11.5t-29 -19l-11.5 -11.5
l-22 18q5 7 14.5 16t36 23t53.5 14q54 1 100 -53z" />
    <glyph glyph-name="quanjuguanli" unicode="&#xe603;" 
d="M512 -128q139 0 257 68.5t186.5 186.5t68.5 257t-68.5 257t-186.5 186.5t-257 68.5t-257 -68.5t-186.5 -186.5t-68.5 -257t68.5 -257t186.5 -186.5t257 -68.5zM512 -64q185 0 316.5 131.5t131.5 316.5t-131.5 316.5t-316.5 131.5t-316.5 -131.5t-131.5 -316.5
t131.5 -316.5t316.5 -131.5zM512 768q159 0 271.5 -112.5t112.5 -271.5t-112.5 -271.5t-271.5 -112.5t-271.5 112.5t-112.5 271.5h384v384z" />
    <glyph glyph-name="huiyuanguanli" unicode="&#xe52b;" 
d="M846 569q0 92 -65.5 157.5t-157.5 65.5q-59 0 -111 -30q-51 30 -110 30q-93 0 -158 -65.5t-65 -157.5q0 -52 23 -98t63 -77q-86 -39 -140 -117.5t-57 -175.5v-12q0 -15 10.5 -26t26 -11t26 11t10.5 26l1 1q0 101 68.5 175t168.5 83v0q12 -1 23 -1t22 1v0q81 -7 143 -59
q2 3 4.5 5.5t12 13t16 16t14.5 10.5q4 3 10 3q-6 6 -11 10h15.5t17.5 1q20 2 39 7v0q51 -22 92 -55q8 16 23 27q18 14 35 20q-35 28 -75 46q40 32 63 78t23 98zM401 417q-63 0 -107.5 44.5t-44.5 107.5t44.5 108t107.5 45t108 -45t45 -108t-45 -107.5t-108 -44.5zM692 439
q-3 -1 -7 -3q-22 -11 -46 -13l-15 -1h-0.5h-0.5q-25 0 -48 8q49 61 49 139q0 79 -50 141q24 8 49 8q61 0 104.5 -43.5t43.5 -104.5q0 -42 -21.5 -77t-57.5 -54zM780 112l18 -17l-11 -11q-9 -8 2 -19l87 -87q1 -1 2.5 -1.5t6.5 -1.5t9 2l43 43q8 10 -2 19l-87 86q-1 1 -2.5 2
t-7 2.5t-10.5 -3.5l-11 -12l-18 18zM768 162l-93 92v29l-55 32l-27 -26l33 -53h29l92 -91zM618 7q0 2 0.5 4t4 6t9.5 4q2 0 4 -0.5t6 -4t4 -9.5q0 -1 -0.5 -3.5t-4 -6t-9.5 -4.5l-12 -12q18 -16 38 0l166 179q2 -2 6 -4t16 -5t24 -3q33 -1 60 21l5 5t10.5 13.5t12 21.5
t4.5 28.5t-7 34.5l-60 -57l-51 50l60 57q-4 2 -12 5t-31 1t-46 -16q-27 -19 -35 -52q-1 -5 -2 -12.5t2 -27.5t15 -36l-187 -153q-1 -1 -2.5 -3.5t-4.5 -10t1 -14.5l16 4v0zM618 7q1 -13 14 -14l-12 -12q-17 14 -18 22l16 4v0z" />
    <glyph glyph-name="huiyuanguanli1" unicode="&#xe607;" 
d="M578 468q-43 -18 -79 -47.5t-62.5 -67.5t-40.5 -83t-14 -95q0 -44 11 -84.5t32 -75.5h-23q-25 0 -57.5 1.5t-66.5 4.5q-35 3 -69 7q-35 4 -62.5 8t-47 8.5t-24.5 8.5q-10 7 -14.5 42t3.5 90q4 21 14.5 34.5t25.5 23t34 15.5t38 11.5t37.5 12t33.5 15.5q18 11 27.5 21.5
t14 21t4.5 21.5t-1 24q-2 20 -13.5 31t-26.5 23q-7 6 -12.5 16.5t-9.5 21.5q-4 13 -8 27q-6 1 -12 5q-5 5 -11 12.5t-10 22t-3.5 26t4.5 21.5q4 9 11 17q0 33 4 65q3 27 11.5 58t26.5 56q17 23 36.5 38t40.5 23.5t41.5 11.5t40.5 3q24 0 48.5 -5.5t45.5 -15t37.5 -21
t25.5 -23.5q22 -27 32 -59.5t15 -62.5q4 -34 4 -68q6 -5 9 -11q4 -6 6 -15.5t0 -23.5q-2 -18 -7.5 -28.5t-11.5 -16.5q-8 -7 -16 -9q-2 -6 -4 -11l-4 -12q-2 -6 -4 -13v0zM699 441q55 0 103.5 -21t84.5 -57.5t57 -85t21 -103.5t-21 -103.5t-57 -85t-84.5 -57.5t-103.5 -21
q-56 0 -104.5 21t-84.5 57.5t-57.5 85t-21.5 103.5t21.5 103.5t57.5 85t84.5 57.5t104.5 21v0zM854 226q5 17 -4.5 31t-25.5 20t-32 1t-24 -26q-4 -15 -8 -27l-8 -26q-3 -13 -9 -29q-5 -15 -14 -36q-8 -22 -24 -20.5t-24 18.5q-9 16 -17 36q-7 16 -16 38q-8 18 -14 34
q-5 15 -10 24q-7 14 -22.5 15.5t-30 -5t-24.5 -20t-3 -29.5q6 -18 13 -38q8 -21 16 -43q9 -22 17 -43q7 -21 13 -36q13 -32 38.5 -48.5t54 -17t54.5 13t37 40.5q10 22 19 46q10 23 19 47q9 23 17 44l12 36v0v0z" />
    <glyph glyph-name="wuliaoguanli" unicode="&#xe651;" 
d="M358 390l-127 72q-5 3 -11 3q-12 0 -19 -10q-3 -5 -3 -11q0 -12 10 -17l128 -72q5 -3 11 -3q12 0 18 10q3 5 3 10q0 12 -10 18zM630 357q4 -7 13 -9t16 2l128 72q10 6 10 17q0 6 -3 11q-7 10 -19 10q-6 0 -11 -3l-127 -72q-10 -6 -10 -17q0 -6 3 -11zM906 488
q-9 0 -15.5 -5.5t-6.5 -14.5v-251l-363 -194v356q0 1 -1 5l371 198q11 6 11 18q0 13 -12 18l-381 180q-5 2 -10 2t-9 -2l-382 -180q-11 -5 -11 -18q0 -3 1 -5q-2 -4 -2 -7v-383q0 -12 11 -18l381 -216v0l0.5 -0.5l0.5 -0.5q4 -2 9 -2h3q4 0 7 2h1h1l407 217q11 5 11 18v263
q0 9 -6.5 14.5t-15.5 5.5zM478 24l-339 192v349l340 -181q-1 -4 -1 -5v-355zM835 599l-336 -179l-335 179l335 158z" />
    <glyph glyph-name="guanli2" unicode="&#xe611;" 
d="M357 896h-212q-57 0 -97 -41t-40 -99v-219q0 -57 40 -97t97 -40h294q23 0 39.5 16t16.5 40v300q0 58 -40 99t-98 41zM879 896h-212q-58 0 -98 -40.5t-40 -97.5v-302q0 -24 16.5 -40t39.5 -16h294q57 0 97 40.5t40 96.5v219q0 58 -40 99t-97 41zM439 368h-294
q-57 0 -97 -40.5t-40 -96.5v-219q0 -57 40.5 -97.5t96.5 -40.5h212q58 0 98 41t40 97v300q0 24 -16.5 40t-39.5 16zM879 368h-294q-23 0 -39.5 -16t-16.5 -40v-302q0 -58 40.5 -98t97.5 -40h212q57 0 97 40.5t40 97.5v218q0 59 -40 99.5t-97 40.5z" />
    <glyph glyph-name="piaojuguanli" unicode="&#xe682;" 
d="M931 -15h-830q-20 0 -34.5 14.5t-14.5 35.5v6h920v-6q0 -22 -10.5 -36t-30.5 -14zM965 301v-148q0 -21 -8 -29.5t-29 -8.5h-818q-23 0 -39 9t-16 29v148q0 2 -0.5 8.5t0 8.5t1 5.5t3 5t6.5 1.5q0 1 5.5 4l5.5 3q31 8 52.5 44t21.5 73.5t-21.5 73t-52.5 44.5h-2.5h-5.5
t-3 1q-4 0 -6.5 1t-3 4t-1 5t0 7.5t0.5 7.5v149q0 24 9 40t28 16h836q19 0 28 -16t9 -40v-149v-5v-10t-2.5 -5.5t-6.5 -2.5q0 -1 -5 -1.5l-5 -0.5q-30 -8 -47 -43.5t-17 -75.5q0 -38 17 -70.5t47 -40.5q3 -2 7.5 -7t5.5 -6q3 0 4.5 -1.5t2 -4.5t0.5 -6t-0.5 -8.5t-0.5 -8.5z
M928 105h-818q-26 0 -43 9q-23 13 -23 39v148v7q0 20 6 27q5 4 11 5l4 2v3l8 2q28 7 47.5 40.5t19.5 67t-19.5 66.5t-47.5 41h-1h-1h-5q-2 0 -3 1q-8 0 -13 5q-6 7 -6 24v6v149q0 31 13 48.5t35 17.5h836q22 0 34.5 -17.5t12.5 -48.5v-149v-4q1 -18 -5 -24q-5 -4 -11 -5
q-2 -1 -3 -1h-4h-1l-2 -1q-25 -7 -40.5 -39.5t-15.5 -69.5q0 -36 14 -64q16 -30 42 -37l2 -1l1 -1q4 -3 10 -9q1 -2 2 -2q4 -1 6 -4q6 -6 6 -27q-1 -5 -1 -8v-148q0 -25 -11 -36.5t-36 -11.5zM65 320q-1 -3 0 -12v-7v-148q0 -27 45 -27h818q16 0 21.5 5t5.5 22v148v9v10
l-3 2q-1 2 -5 6l-6 6q-33 10 -51 45t-18 75q0 42 17 78q20 40 53 50q1 1 4 2v1h9v8v5v149q0 45 -27 45h-836q-27 0 -27 -45v-149v-7q-1 -6 0 -8v0h10v-1q3 0 6 -1q33 -10 57 -49q22 -38 22 -78t-22 -77q-24 -39 -57 -49l-6 -3v-5h-10zM703 511l-9 22q-4 9 -14 9h-1l-46 -4
q-10 14 -23 24l5 47q1 11 -9 15l-21 9q-3 1 -6 1v0q-7 0 -12 -5l-29 -36q-10 2 -19 2q-8 0 -15 -1l-29 36q-4 6 -11 6q-3 0 -6 -2l-21 -8q-10 -4 -9 -15l3 -46q-14 -10 -25 -24l-45 5h-1v0q-10 0 -14 -9l-9 -21q-4 -10 4 -18l34 -28q-1 -11 -1 -21v-16l-34 -28q-5 -4 -5 -11
q0 -3 1 -6l8 -21q4 -10 14 -10q1 0 1 1l43 3q12 -15 26 -27l-4 -43q-1 -11 9 -15l21 -9q3 -2 6 -2v0q7 0 11 6l28 33q10 -1 19 -1t18 1l27 -34q5 -6 12 -6q3 0 5 1l22 9q10 4 9 15l-4 44q15 11 26 26l44 -5h1l23 30q1 3 1 6q0 7 -5 11l-34 30q1 9 1 18q0 8 -1 16l35 29
q9 7 5 17zM575 254q-12 0 -20 9l-23 30q-7 -1 -13 -1q-8 0 -16 1l-24 -29q-8 -9 -19 -9v0q-6 0 -10 2l-21 9q-17 8 -15 26l4 38q-11 9 -20 20l-38 -3h-2q-17 0 -23 16l-9 21q-7 18 8 29l30 25q-1 14 0 27l-29 26q-14 12 -7 29l9 21q6 15 23 15h3l39 -4q9 10 19 18l-4 40
q-1 18 16 25l21 9q5 2 10 2v0q12 0 19 -10l26 -32q5 1 10 1q7 0 14 -1l27 31q7 9 19 9v0q5 0 10 -2l21 -9q17 -7 15 -25l-5 -41q10 -9 18 -18l40 3h2q17 0 24 -15l8 -22q7 -17 -7 -29l-32 -25q1 -13 0 -26l31 -26q14 -12 7 -29l-1 -1l-26 -36h-6q-1 0 -2 1l-39 4
q-9 -11 -19 -20l3 -38q2 -19 -16 -26l-21 -8q-4 -2 -9 -2v0zM541 314l30 -38q2 -2 4 -2v0q1 0 1 1l22 8q3 1 3 5l-5 50l5 3q13 10 24 24l3 4l46 -5l18 25v1q0 2 -2 3l-38 33v6q1 8 1 17q0 7 -1 15v6l40 32q2 2 1 6l-8 21q-2 3 -5 3l-52 -4l-3 4q-10 12 -22 22l-4 4l5 52
q1 3 -2 5l-21 9h-2q-2 0 -4 -2l-33 -40l-6 1q-15 2 -31 1l-6 -1l-32 41q-2 2 -5 1l-21 -9q-4 -1 -3 -4l4 -52l-4 -3q-13 -10 -24 -23l-3 -4l-51 6v0q-3 0 -4 -3l-9 -21q-2 -4 1 -6l38 -32l-1 -6q-1 -9 -1 -19q0 -7 1 -15v-5l-38 -32q-2 -1 -2 -3v-2l9 -21q1 -3 4 -3v0l49 4
l4 -5q10 -14 24 -25l4 -3l-5 -49q0 -4 3 -5l21 -9h2q2 0 3 1l32 38l5 -1q9 -1 19 -1q8 0 16 1h6zM521 386q-25 0 -43 18t-18 43.5t18 43.5t43 18t43 -18t18 -43.5t-18 -43.5t-43 -18zM521.5 376q-29.5 0 -50.5 21t-21 51t21 51t50.5 21t50.5 -21t21 -51t-21 -51t-50.5 -21z
M521 499q-21 0 -36 -15t-15 -36t15 -36t36 -15t36 15t15 36t-15 36t-36 15z" />
    <glyph glyph-name="quanxianguanli" unicode="&#xe68a;" 
d="M866 -86h-673q-28 0 -48 18.5t-20 44.5v471q0 26 20 44.5t48 18.5h673q28 0 47.5 -18.5t19.5 -44.5v-471q0 -26 -19.5 -44.5t-47.5 -18.5v0zM529 354q-42 0 -71.5 -27.5t-29.5 -66.5q0 -26 14 -47.5t37 -34.5v-89q0 -21 14.5 -35t35.5 -14t36 14t15 35v89
q23 13 36.5 34.5t13.5 47.5q0 39 -29.5 66.5t-71.5 27.5v0zM529 762q-84 0 -143 -55t-59 -133h-101q0 117 89 199.5t214.5 82.5t214 -82.5t88.5 -199.5h-101q0 78 -59 133t-143 55zM529 762zM866 -96v0v10v-10h-673q-33 0 -55.5 21.5t-22.5 51.5v471q0 30 22.5 51.5
t55.5 21.5h673q32 0 54.5 -21.5t22.5 -51.5v-471q0 -31 -23 -52q-22 -21 -54 -21zM193 501q-24 0 -41 -15.5t-17 -37.5v-471q0 -22 17 -37.5t41 -15.5h673q24 0 40 16q17 15 17 37v471q0 22 -17 37.5t-40 15.5h-673zM529 29q-25 0 -43 17.5t-18 42.5v84q-23 14 -36.5 37
t-13.5 50q0 43 32.5 73.5t78.5 30.5v0q46 0 78.5 -30.5t32.5 -73.5q0 -27 -13.5 -50t-36.5 -37v-84q0 -25 -18 -42.5t-43 -17.5zM529 344q-38 -1 -64.5 -25.5t-26.5 -58.5q0 -48 45 -73q6 -2 6 -9v-89q0 -16 11.5 -27.5t28.5 -11.5t28.5 11.5t11.5 27.5v89q0 7 6 9
q45 25 45 73q0 34 -26.5 59t-64.5 25v0zM832 563h-101q-4 0 -7 3t-3 8q0 73 -56.5 125.5t-135.5 52.5t-135.5 -52.5t-56.5 -125.5q0 -11 -10 -11h-101q-10 0 -10 11q0 121 92 207t221.5 86t220.5 -86q92 -86 92 -207q0 -5 -3 -8t-7 -3zM741 584h81q-5 109 -90 185.5
t-203 76.5t-203 -76.5t-89 -185.5h80q4 79 65.5 133.5t146.5 54.5t146.5 -54.5t65.5 -133.5z" />
    <glyph glyph-name="icon-test" unicode="&#xe626;" 
d="M976 524q-2 7 -8.5 10.5t-13.5 1.5q-30 -6 -58 6t-43.5 38.5t-11.5 57.5q3 30 24 52q12 13 0 26q-101 106 -242 139q-7 2 -13.5 -1.5t-8.5 -10.5q-9 -29 -33 -47q-25 -19 -56 -19t-56 19q-24 18 -33 47q-2 7 -8.5 10.5t-13.5 1.5q-141 -33 -242 -139q-12 -13 0 -26
q21 -22 24 -52q4 -31 -11.5 -57.5t-43.5 -38.5t-58 -6q-2 1 -4 1q-14 0 -18 -13q-20 -69 -20 -140t20 -140q2 -7 8.5 -10.5t13.5 -1.5q30 6 58 -6t43.5 -38.5t11.5 -57.5q-3 -30 -24 -52q-12 -13 0 -26q101 -106 242 -139q7 -2 13.5 1.5t8.5 10.5q9 29 33 47q25 19 56 19
t56 -19q24 -18 33 -47q4 -13 18 -13q1 0 4 1q141 33 242 139q12 13 0 26q-21 22 -24 52q-4 31 11.5 57.5t43.5 38.5t58 6q7 -2 13 1.5t8 10.5q21 68 21 140t-20 140zM944 271q-32 2 -62 -10q-40 -17 -61.5 -55t-16.5 -80q4 -33 22 -60q-83 -82 -196 -113q-14 29 -40 49
q-35 26 -78 26t-78 -26q-26 -20 -40 -49q-113 31 -196 113q18 27 22 60q5 42 -16.5 80t-61.5 55q-30 12 -62 10q-15 55 -15 113t15 113q32 -2 62 10q40 17 61.5 55t16.5 80q-4 33 -22 60q83 82 196 113q14 -29 40 -49q35 -26 78 -26t78 26q26 20 40 49q113 -31 196 -113
q-18 -27 -22 -60q-5 -42 16.5 -80t61.5 -55q30 -12 62 -10q15 -56 15 -113q0 -58 -15 -113zM662 461q-7 -3 -10 -10t-1 -14q10 -25 10 -53q0 -62 -43.5 -105.5t-105.5 -43.5t-105.5 43.5t-43.5 105.5t43.5 105.5t105.5 43.5q49 0 88 -29q7 -5 14.5 -3.5t12 7.5t3.5 13.5
t-8 12.5q-49 36 -110 36q-77 0 -131.5 -54.5t-54.5 -131.5t54.5 -131.5t131.5 -54.5t131.5 54.5t54.5 131.5q0 34 -12 66q-3 7 -10 10.5t-14 0.5z" />
    <glyph glyph-name="icon-test1" unicode="&#xe62a;" 
d="M391 -63h-228q-16 0 -26.5 11t-10.5 26v820q0 15 10.5 26t26.5 11h633q15 0 26 -11t11 -26v-113q0 -7 5.5 -12.5t13 -5.5t13 5.5t5.5 12.5v113q0 30 -21.5 52t-52.5 22h-633q-31 0 -53 -22t-22 -52v-820q0 -30 22 -52t53 -22h228q7 0 12.5 5.5t5.5 13t-5.5 13t-12.5 5.5
v0zM749 662.5q0 7.5 -5.5 13t-12.5 5.5h-503q-8 0 -13.5 -5.5t-5.5 -13t5.5 -13t13.5 -5.5h503q7 0 12.5 5.5t5.5 13zM888 584.5q-33 19.5 -70 10.5t-55 -41l-279 -483q-19 -33 -20 -83q-1 -61 33 -81q12 -7 28 -7q27 0 58 19q43 26 62 58l279 484q19 32 8 68t-44 55.5z
M892 480l-12 -21q7 -4 9 -11.5t-2 -14t-11.5 -8.5t-14.5 2l-248 -431q-15 -24 -49 -45q-34 -20 -48.5 -11.5t-14.5 47.5q1 40 15 65l249 430q-7 4 -9 11.5t2 14.5t11.5 9t13.5 -2l12 21q14 24 45 24q15 0 29 -8q20 -11 27 -32.5t-4 -39.5zM783 515q-6 4 -13.5 2t-11.5 -9
t-2 -14.5t9 -11.5l96 -55q7 -4 14.5 -2t11.5 8.5t2 14t-9 11.5zM656 476.5q0 7.5 -5.5 13t-12.5 5.5h-410q-8 0 -13.5 -5.5t-5.5 -13t5.5 -13t13.5 -5.5h410q7 0 12.5 5.5t5.5 13zM228 308q-8 0 -13.5 -5.5t-5.5 -13t5.5 -13t13.5 -5.5h242q8 0 13.5 5.5t5.5 13t-5.5 13
t-13.5 5.5h-242z" />
    <glyph glyph-name="icon-test2" unicode="&#xe62f;" 
d="M922 775h-820q-30 0 -52 -22t-22 -52v-634q0 -30 22 -52t52 -22h820q30 0 52 22t22 52v634q0 30 -22 52t-52 22zM959 67q0 -15 -11 -26t-26 -11h-820q-15 0 -26 11t-11 26v634q0 15 11 26t26 11h820q15 0 26 -11t11 -26v-634zM188.5 496q38.5 0 66 27.5t27.5 66
t-27.5 65.5t-66 27t-65.5 -27t-27 -65.5t27 -66t65.5 -27.5zM189 645q23 0 39.5 -16.5t16.5 -39.5t-16.5 -39.5t-39.5 -16.5t-39.5 16.5t-16.5 39.5t16.5 39.5t39.5 16.5zM891 124h-521q-8 0 -13 -5t-5 -12.5t5 -13t13 -5.5h521q8 0 13 5.5t5 13t-5 12.5t-13 5zM891 125
h-521q-8 0 -13.5 -5.5t-5.5 -13.5t5.5 -13.5t13.5 -5.5h521q8 0 13.5 5.5t5.5 13.5t-5.5 13.5t-13.5 5.5zM891 88h-521q-8 0 -13 5.5t-5 13t5 12.5t13 5h521q8 0 13 -5t5 -12.5t-5 -13t-13 -5.5zM891 210h-335q-8 0 -13 -5.5t-5 -13t5 -12.5t13 -5h335q8 0 13 5t5 12.5
t-5 13t-13 5.5zM891 211h-335q-8 0 -13.5 -5.5t-5.5 -13.5t5.5 -13.5t13.5 -5.5h335q8 0 13.5 5.5t5.5 13.5t-5.5 13.5t-13.5 5.5zM891 174h-335q-8 0 -13 5t-5 12.5t5 13t13 5.5h335q8 0 13 -5.5t5 -13t-5 -12.5t-13 -5zM432 271v0v0l230 229l216 -216q5 -6 13 -6t13.5 5.5
t5.5 13.5t-6 13l-242 243l-230 -230l-150 150v0v0l-162 -163q-6 -5 -6 -12.5t5.5 -13t13.5 -5.5t13 5l136 136z" />
    <glyph glyph-name="icon-test3" unicode="&#xe631;" 
d="M773 199q-37 -21 -79 -21t-79 21q-37 -16 -65 -44q-52 -52 -60 -125h38q7 58 48 99q49 48 118 48t118 -48q41 -41 48 -99h38q-8 73 -60 125q-28 28 -65 44zM773 198.5q36 20.5 57.5 57.5t21.5 80q0 65 -46 111.5t-111.5 46.5t-112 -46.5t-46.5 -111.5q0 -43 21.5 -80
t57.5 -57q37 -21 79.5 -21t78.5 20.5zM573 336q0 50 35.5 85.5t85.5 35.5t85.5 -35.5t35.5 -85.5t-35.5 -85.5t-85.5 -35.5t-85.5 35.5t-35.5 85.5zM922 775h-820q-30 0 -52 -22t-22 -52v-634q0 -30 22 -52t52 -22h820q30 0 52 22t22 52v634q0 30 -22 52t-52 22zM959 67
q0 -15 -11 -26t-26 -11h-820q-15 0 -26 11t-11 26v634q0 15 11 26t26 11h820q15 0 26 -11t11 -26v-634zM150 548h223q8 0 13.5 5.5t5.5 13.5t-5.5 13t-13.5 5h-223q-8 0 -13.5 -5t-5.5 -13t5.5 -13.5t13.5 -5.5zM466 491h-316q-8 0 -13.5 -5.5t-5.5 -13t5.5 -13t13.5 -5.5
h316q8 0 13.5 5.5t5.5 13t-5.5 13t-13.5 5.5zM299 397h-149q-8 0 -13.5 -5.5t-5.5 -13t5.5 -13t13.5 -5.5h149q7 0 12.5 5.5t5.5 13t-5.5 13t-12.5 5.5z" />
    <glyph glyph-name="icon-test4" unicode="&#xe634;" 
d="M993 505q-24 73 -47 130q-36 89 -65 118t-118 65q-57 24 -130 47q-43 13 -75 -19l-508 -509q-22 -21 -22 -51.5t22 -52.5l311 -311q22 -22 52.5 -22t51.5 22l509 509q32 31 19 74zM439 -52q-11 -11 -26 -11t-25 11l-312 312q-11 10 -11 25t11 26l509 509q16 16 37 9
q191 -61 233 -102q41 -42 102 -233q7 -21 -9 -37l-509 -509v0zM801 673q-27 27 -65.5 27t-66 -27t-27.5 -65.5t27.5 -66t66 -27.5t65.5 27.5t27 66t-27 65.5zM696 568q-16 16 -16 39.5t16 39.5t39.5 16t39.5 -16t16 -39.5t-16 -39.5t-39.5 -16t-39.5 16zM239 225l-48 48
q-7 7 0 14l92 92q6 6 6 13.5t-5.5 13t-13 5.5t-13.5 -5l-93 -93q-13 -14 -13 -33t13 -33l49 -49q6 -5 13.5 -5t13 5.5t5.5 13t-6 13.5z" />
    <glyph glyph-name="icon-test5" unicode="&#xe635;" 
d="M974.5 487.5q-33.5 45.5 -90.5 45.5h-251v216q0 49 -35 84t-84 35q-50 0 -85 -35.5t-35 -85.5q1 -70 -3 -96q-5 -32 -35 -118h-183q-3 0 -5 -1q32 -5 43 -36h158q13 0 18 12q35 100 41 137q4 29 3 103q0 34 24 58.5t59 24.5q34 0 58 -24t24 -58v-235q0 -7 5.5 -12.5
t12.5 -5.5h270q38 0 60.5 -30.5t10.5 -66.5l-107 -344q-17 -53 -61 -85.5t-99 -32.5h-477q-11 -31 -43 -36q2 -1 5 -1h515q67 0 121 39.5t74 104.5l108 344q17 54 -16.5 99.5zM211 -63q3 9 3 19v521q0 10 -3 19q-11 31 -43 36q-5 1 -10 1h-74q-23 0 -39.5 -16.5t-16.5 -39.5
v-521q0 -23 16.5 -39.5t39.5 -16.5h74q5 0 10 1q32 5 43 36zM65 -44v521q0 8 5.5 13.5t13.5 5.5h74q8 0 13.5 -5.5t5.5 -13.5v-521q0 -8 -5.5 -13.5t-13.5 -5.5h-74q-8 0 -13.5 5.5t-5.5 13.5z" />
    <glyph glyph-name="icon-test6" unicode="&#xe636;" 
d="M991 -67l-202 202q50 55 80 124q34 81 34 170.5t-34 170.5q-34 78 -94 139q-61 60 -139 94q-82 34 -171 34q-88 0 -170 -34q-78 -34 -139 -94q-60 -60 -94 -139q-34 -82 -34 -171t34 -170q33 -78 94 -139q60 -60 139 -94q81 -34 170 -34t171 34q70 30 127 82l201 -202
q6 -5 13.5 -5t13 5.5t5.5 13t-5 13.5zM621 61q-74 -32 -155.5 -32t-155.5 32q-72 30 -127.5 85.5t-85.5 127.5q-32 74 -32 155.5t32 155.5q30 72 85.5 127.5t127.5 85.5q74 32 155.5 32t155.5 -32q72 -30 127.5 -85.5t85.5 -127.5q32 -74 32 -155.5t-32 -155.5
q-30 -72 -85.5 -127.5t-127.5 -85.5zM378 782q-98 -24 -169.5 -96t-95.5 -170q-2 -8 2 -14.5t11 -8.5h5q15 0 18 14q21 88 86 153q64 64 152 86q8 2 12 8.5t2 14t-8.5 11.5t-14.5 2zM810.5 434q-7.5 0 -13.5 -5t-6 -13q-5 -127 -95 -217t-217 -95q-8 0 -13 -6t-5 -13.5
t5.5 -12.5t13.5 -5v0q142 5 242 105.5t106 241.5q0 8 -5 14t-12.5 6z" />
    <glyph glyph-name="guanli3" unicode="&#xe60b;" 
d="M218 517v6q0 18 12.5 30.5t30.5 12.5h34q17 0 29.5 -12.5t12.5 -30.5v-7q0 -17 5.5 -21.5t23.5 -4.5h296q16 0 20 4t4 19v10q0 18 12.5 30.5t30.5 12.5h33q17 0 29.5 -12.5t12.5 -30.5v-8q0 -15 6 -20t22 -5h164q16 0 22 6t6 22v48q0 36 -25 61.5t-60 25.5h-854
q-35 0 -60 -25.5t-25 -61.5v-45q0 -18 7 -24.5t26 -6.5h155q19 0 24.5 4.5t5.5 22.5zM804 402v-10v0q0 -17 -12.5 -30t-29.5 -13h-33q-18 0 -30.5 13t-12.5 30v0v9q0 14 -5 19t-19 5h-294q-19 0 -25 -5.5t-6 -21.5v-6v0q0 -17 -12.5 -30t-29.5 -13h-34q-18 0 -30.5 13
t-12.5 30v0v4q0 18 -5.5 23.5t-23.5 5.5h-156q-20 0 -26.5 -6.5t-6.5 -26.5v-433q0 -36 25 -61.5t60 -25.5h854q35 0 60 25.5t25 61.5v440q0 14 -6 20t-20 6h-165q-17 0 -23 -4.5t-6 -18.5zM310 429q0 -17 -9.5 -29.5t-22.5 -12.5t-22.5 12.5t-9.5 29.5v52q0 18 9.5 30.5
t22.5 12.5t22.5 -12.5t9.5 -30.5v-52zM778 429q0 -17 -9.5 -29.5t-22.5 -12.5t-22.5 12.5t-9.5 29.5v52q0 18 9.5 30.5t22.5 12.5t22.5 -12.5t9.5 -30.5v-52zM334 699q20 56 69 91t109.5 35t109.5 -35t69 -91q1 -3 3 -7t12 -11t25 -7t23.5 6t9.5 12v7q-22 86 -92 141.5
t-159.5 55.5t-159.5 -55.5t-93 -141.5q0 -3 1 -6.5t9 -9.5t23.5 -6t25.5 5.5t12 10.5z" />
    <glyph glyph-name="tuiguangguanli" unicode="&#xe610;" 
d="M51 534q0 26 18 44.5t44 18.5h62v-288h-62q-26 0 -44 19q-18 18 -18 44v1v161zM737 798q42 42 76 46t60.5 -19t45.5 -67q20 -49 30 -100q12 -54 18 -114t6 -115q0 -54 -8 -108q-6 -52 -21 -102q-13 -44 -33 -84q-20 -36 -43 -53t-50 -12t-57 40q-28 34 -76.5 57.5
t-106 39t-115.5 25.5q-95 15 -108 17q-49 8 -82 15t-37 18v320q4 15 31 24q34 11 69 17q43 9 94 18q54 10 106 27q55 17 107 43t94 67zM384 170q6 -13 12 -27q7 -15 16 -30q9 -17 23 -38l34 -52q17 -27 26 -49t5.5 -36.5t-28.5 -14.5h-55q-20 0 -37 8q-18 9 -32 23
q-17 19 -31 41q-18 28 -35 58q-22 39 -31 68q-8 24 -12 49q-2 10 -2 19.5t2 19.5q8 -1 19 -4q5 -1 21 -5q12 -3 30 -6q14 -4 30 -8q23 -7 45 -16zM472 -79h-55q-20 0 -37 8q-19 9 -33 24q-17 19 -31 41q-19 29 -35 58q-23 39 -32 69q-7 24 -12 49q-4 20 0 39l1 2h1
q9 -1 19 -4q5 -1 20 -5h2q11 -3 29 -6l30 -8q23 -7 46 -16h1v-1q5 -14 12 -27q7 -15 15 -30q10 -17 24 -38q17 -26 33 -52q18 -27 26 -49q10 -23 6 -38q-4 -16 -30 -16zM241 207q-2 -9 -2 -17q0 -10 2 -19q4 -25 12 -49q9 -29 31 -68q16 -30 35 -58q13 -22 31 -40
q13 -15 31 -23q16 -8 36 -8h55q23 0 26 13q4 14 -5 35.5t-26 48.5q-16 26 -33 52q-14 21 -24 38q-9 15 -16 31q-6 13 -11 26q-22 9 -45 15l-30 8q-14 3 -29 6h-2q-10 3 -19 5q-9 3 -17 4zM829 67q-6 0 -12 1q-27 5 -57 40q-28 35 -76 58q-49 23 -106 39t-116 25l-32 6
q-53 8 -75 12q-49 7 -82 15q-34 7 -38 18l-1 1l1 321q4 15 32 25q33 11 68 17q44 9 94 18q54 10 107 27q55 17 106 43q52 26 94 66q42 43 77 47t62 -19q27 -24 46 -69q19 -48 30 -99q12 -55 18 -115t6 -115q0 -54 -8 -109q-7 -52 -21 -102q-13 -43 -34 -84q-19 -36 -43 -53
q-19 -14 -40 -14zM238 282q4 -9 35 -16q34 -7 82 -15q24 -4 75 -12l33 -5q59 -10 116.5 -26t105.5 -39q49 -23 78 -58t55 -40q26 -4 49 12q23 17 42 53q21 40 33 83q15 50 22 102q7 54 7 108.5t-6 113.5q-6 60 -18 115q-10 51 -30 99q-18 44 -44 67q-26 22 -59.5 18
t-75.5 -45t-94 -68q-52 -26 -107 -43q-53 -16 -107 -26q-50 -10 -94 -18q-35 -7 -68 -18q-26 -9 -30 -22v-320zM176 308h-63q-26 0 -45 18.5t-19 45.5v1v161q0 27 19 46t45 19h63v-291zM113 596q-25 0 -42.5 -18t-17.5 -44v-161v-1q0 -25 17.5 -43t42.5 -18h60v285h-60z" />
    <glyph glyph-name="tuanduiguanli" unicode="&#xe649;" 
d="M971 -125h-924q-19 0 -33 14t-14 34v926q0 19 14 33t33 14h926q20 0 34 -14t14 -33v-927q-1 -20 -15.5 -33.5t-34.5 -13.5zM698 164q7 0 11 4t4 11q0 69 -40 122q-20 24 -45 44q-28 18 -50 27q61 37 61 108q0 53 -37.5 91t-90.5 38t-90.5 -37.5t-37.5 -91.5q0 -34 20 -66
q14 -25 43 -42q-29 -10 -52 -27q-27 -17 -45 -44q-40 -54 -40 -122q0 -7 4 -11t11 -4h374zM795 246q7 0 7 7q0 33 -19 57q-9 12 -21 21q-14 8 -24 12q28 16 28 50q0 25 -17.5 42.5t-42 17.5t-41.5 -17.5t-17 -42.5q0 -18 8 -31q8 -12 20 -19q-6 -2 -24 -12q-12 -9 -21 -21
q-19 -27 -19 -57q0 -7 7 -7h176zM408 246q8 0 8 7q0 33 -19 57q-10 12 -21 21q-14 8 -24 12q28 16 28 50q0 25 -17.5 42.5t-42 17.5t-42 -17.5t-17.5 -42.5q0 -18 9 -31q7 -12 19 -19q-5 -2 -24 -12q-11 -9 -20 -21q-20 -27 -20 -57q0 -7 8 -7h175z" />
    <glyph glyph-name="pingjiaguanli" unicode="&#xe637;" 
d="M406 -37q-14 0 -24 11q-23 26 -55 45t-57.5 28t-53.5 14.5t-38.5 6t-16.5 0.5v0q-13 0 -22.5 9t-9.5 22.5t9 23t23 9.5q6 0 20.5 -0.5t47 -7t64 -17.5t70 -34.5t67.5 -56.5q9 -10 8 -23t-11 -22q-9 -8 -21 -8v0zM621 -37v0q-13 0 -22 9q-10 9 -10.5 22t8.5 23
q30 32 69 56t70.5 35t64 17t46 6.5t20.5 0.5q13 0 22.5 -9.5t9 -22.5t-9.5 -22.5t-23 -9.5v0q-6 0 -16 -0.5t-37.5 -6t-53.5 -14.5t-58 -28t-57 -46q-9 -10 -23 -10zM564 126h-101q-5 0 -9 1q-82 11 -149 56.5t-111 121.5q-52 88 -63 192t23 186q4 8 12.5 13.5t16.5 6.5h10
q92 0 170 -35q56 104 127 155q4 4 9 6q16 7 30 -3q3 -1 5 -3q70 -52 126 -156q80 36 174 36h10q9 -1 17.5 -6.5t11.5 -13.5q34 -82 23.5 -186t-62.5 -192q-45 -76 -112 -121.5t-148 -56.5q-5 -1 -10 -1zM513.5 -65q-13.5 0 -23 9.5t-9.5 22.5v191q0 13 9.5 22.5t23 9.5
t22.5 -9.5t9 -22.5v-191q0 -13 -9 -22.5t-22.5 -9.5z" />
    <glyph glyph-name="hetongguanli_hetongguanli" unicode="&#xe79e;" 
d="M897 422q-8 -22 -30.5 -38.5t-46.5 -16.5h-38h-1q-24 0 -46.5 16.5t-29.5 38.5q-17 -8 -36 -8q-14 0 -31 7t-26 17l-28 27q-15 16 -19 37h-417v81h386q-20 23 -20 52v38q0 34 24 58q13 13 31 19q-8 17 -8 36v0q0 33 23 57h-522q-26 0 -44 -18t-18 -43v-830q0 -25 18 -43
t44 -18h829v0q25 0 43.5 18t18.5 43v466q-16 -4 -20 -4q-19 0 -36 8zM147 288v81h610v-81h-610zM792 149v-79h-644v81h644v-2zM1019 686q-5 5 -12 5v0h-23q-14 0 -20 14l-11 29q-2 4 -2 9q0 9 5 15l16 16q5 5 5 12t-5 12l-27 28q-5 5 -12 5t-12 -5l-16 -16q-6 -6 -15 -6v0v0
q-5 0 -9 2l-29 12q-14 5 -15 20v22q0 7 -5 12t-12 5h-38q-7 0 -12 -5t-5 -12v-22q-1 -15 -15 -20l-29 -12q-4 -2 -9 -2v0v0q-9 0 -15 6l-16 16q-5 5 -12 5t-12 -5l-27 -28q-5 -5 -5 -12t5 -12l16 -16q5 -6 5 -15q0 -5 -2 -9l-11 -29q-5 -14 -20 -14h-23v0q-7 0 -12 -5
t-5 -13v0v-38q0 -7 5 -12t12 -5v0h23q6 0 12 -4.5t7 -10.5l12 -28q2 -5 2 -10q0 -8 -5 -15l-16 -16q-5 -5 -5 -12t5 -12l27 -27q5 -5 12 -5t12 5l16 16q6 6 15 6v0q5 0 9 -3l29 -11q15 -5 15 -20v-23v0q0 -7 5 -12t12 -5v0h38v0q7 0 12 5t5 12v23q0 15 15 20l29 11q4 3 9 3
v0q9 0 15 -6l16 -16q5 -5 12 -5t12 5l27 27q5 5 5 12t-5 12l-16 16q-5 7 -5 15q0 5 2 10l12 28q5 14 19 15h23q7 0 12 5t5 12v38v1q0 7 -5 12zM801 572q-34 0 -58 24t-24 58t24 58.5t58 24.5q32 -2 55 -26t23 -56.5t-23 -56.5t-55 -26z" />
    <glyph glyph-name="zhilingguanli" unicode="&#xe606;" 
d="M512 768q159 0 271.5 -112.5t112.5 -271.5t-112.5 -271.5t-271.5 -112.5t-271.5 112.5t-112.5 271.5t112.5 271.5t271.5 112.5zM512 896q-139 0 -257 -68.5t-186.5 -186.5t-68.5 -257t68.5 -257t186.5 -186.5t257 -68.5t257 68.5t186.5 186.5t68.5 257t-68.5 257
t-186.5 186.5t-257 68.5zM768 384l-192 192v-128h-320v-128h320v-128z" />
    <glyph glyph-name="gonggaoguanli1" unicode="&#xe51e;" horiz-adv-x="1536" 
d="M1300 207h-27q-9 0 -17.5 6t-11.5 15l-15 37q-5 8 -3 18.5t8 17.5l19 18q6 7 6 16t-6 16l-32 31q-6 7 -15.5 7t-15.5 -7l-19 -19q-6 -6 -16.5 -7.5t-18.5 2.5l-38 16q-8 2 -14.5 10.5t-6.5 17.5v27q0 9 -6.5 15.5t-15.5 6.5h-45q-9 0 -15.5 -6.5t-6.5 -15.5v-27
q0 -9 -6 -17.5t-15 -10.5l-37 -16q-9 -4 -19 -2.5t-17 7.5l-19 19q-6 7 -15.5 7t-15.5 -7l-32 -31q-6 -7 -6 -16t6 -16l19 -18q7 -7 8.5 -17.5t-3.5 -18.5l-15 -37q-3 -9 -11.5 -15t-17.5 -6h-26q-10 0 -16.5 -6.5t-6.5 -16.5v-44q0 -9 6.5 -15.5t16.5 -6.5h26
q9 0 17.5 -6.5t11.5 -15.5l15 -37q5 -8 3.5 -18.5t-8.5 -16.5l-19 -19q-6 -7 -6 -16t6 -16l32 -31q6 -7 15.5 -7t15.5 7l19 19q7 6 17 7.5t18 -2.5l38 -15q8 -3 14.5 -11.5t6.5 -17.5v-27q0 -9 6.5 -15.5t15.5 -6.5h45q9 0 15.5 6.5t6.5 15.5v27q0 9 6 17.5t15 11.5l37 15
q9 4 19 2.5t17 -7.5l19 -19q6 -7 15.5 -7t15.5 7l32 31q6 7 6 16t-6 16l-19 19q-7 6 -8.5 16.5t3.5 18.5l15 37q3 9 11.5 15.5t17.5 6.5h27q9 0 15.5 6.5t6.5 15.5v44q0 10 -6.5 16.5t-15.5 6.5zM1032.5 51q-46.5 0 -79 32.5t-32.5 78.5t32.5 79t79 33t79 -33t32.5 -79
t-32.5 -78.5t-79 -32.5zM688 179q0 95 50 174.5t132 121.5v377q0 29 -20.5 40t-48.5 -1l-273 -175h-137q-57 0 -97 -40t-40 -97v-274q0 -56 40 -96t97 -40h137l187 -120q-27 62 -27 130zM1010 579q16 -32 23 -68q37 -1 72 -11q-9 58 -34 109q-20 40 -40 62q-10 10 -24 10.5
t-24.5 -9.5t-10.5 -24t9 -24q14 -15 29 -45zM1120 758q7 -6 18 -19q24 -27 44 -61q63 -108 63 -236v-18q36 -33 61 -74q8 45 8 92q0 147 -73 271q-37 62 -75 97q-11 9 -25 8t-23.5 -11.5t-8.5 -24.5t11 -24z" />
    <glyph glyph-name="xiangmuguanli1" unicode="&#xe52e;" 
d="M64 682l448 -199l448 150l-448 199zM960 583v-497l-398 -150v498zM64 633v-547l448 -150v498z" />
    <glyph glyph-name="guanli11" unicode="&#xe533;" 
d="M389 795h-315q-13 0 -22.5 -9t-9.5 -22v-333q0 -13 9.5 -22.5t22.5 -9.5h315q13 0 22 9.5t9 22.5v333q0 13 -9 22t-22 9zM357 462h-252v270h252v-270zM105 732h252v-270h-252v270zM389 292h-315q-13 0 -22.5 -9.5t-9.5 -22.5v-314q0 -13 9.5 -22.5t22.5 -9.5h315
q13 0 22 9.5t9 22.5v314q0 13 -9 22.5t-22 9.5zM357 -23h-252v252h252v-252zM105 229h252v-252h-252v252zM892 292h-315q-13 0 -22 -9.5t-9 -22.5v-314q0 -13 9 -22.5t22 -9.5h315v0q13 0 22.5 9.5t9.5 22.5v314v0q0 13 -9.5 22.5t-22.5 9.5v0zM861 -23h-252v252h252v-252z
M609 229h252v-252h-252v252zM977 626l-222 223q-9 9 -22 9t-23 -9l-222 -223q-9 -9 -9 -22t9 -22l222 -223q10 -9 23 -9t22 9l222 223q10 9 10 22t-10 22zM733 426l-178 178l178 178l178 -178zM911 604l-178 -178l-178 178l178 178z" />
    <glyph glyph-name="jingxuan" unicode="&#xe608;" 
d="M512 607l61 -123l136 -20l-98 -96l23 -135l-121 63l-122 -64l23 135l-99 96l136 20zM512 -128q-104 0 -199 40.5t-163.5 109t-109 163.5t-40.5 199t40.5 199t109 163.5t163.5 109t199 40.5t199 -40.5t163.5 -109t109 -163.5t40.5 -199t-40.5 -199t-109 -163.5
t-163.5 -109t-199 -40.5zM512 788q-110 0 -203 -54t-147 -147t-54 -203t54 -203t147 -147t203 -54t203 54t147 147t54 203t-54 203t-147 147t-203 54z" />
    <glyph glyph-name="pojiexiugai" unicode="&#xe60a;" 
d="M618 668l223 -138l-46 -74l-223 137zM738 867l222 -138l-46 -74l-222 137zM309 -128q-80 0 -149 43q-56 34 -95.5 105.5t-39.5 136.5q0 34 12 78t30 72q34 56 105 95.5t137 39.5h1q80 0 150 -42q41 -26 78.5 -77.5t48.5 -99.5q8 -33 8 -66.5t-12.5 -77t-30.5 -72.5
q-34 -56 -105 -95.5t-136 -39.5h-2zM310 325q-44 0 -82 -21t-62 -59q-10 -16 -17 -42t-7 -46q0 -69 49 -118.5t118 -49.5q45 0 83 21t61 59q10 17 17.5 42.5t7.5 45.5t-5 39q-6 28 -28 58.5t-47 45.5q-17 11 -42.5 18t-45.5 7zM691 896l99 -62l-290 -469l-99 61z" />
    <glyph glyph-name="mountains__easyiconnet" unicode="&#xe61d;" 
d="M512 896q104 0 199 -40.5t163.5 -109t109 -163.5t40.5 -199t-40.5 -199t-109 -163.5t-163.5 -109t-199 -40.5t-199 40.5t-163.5 109t-109 163.5t-40.5 199t40.5 199t109 163.5t163.5 109t199 40.5zM158 160l318 674l335 -674h-653zM811 160l-335 674v-674h335zM379 629
l42 21l-8 -79l43 61l20 -108l35 128l83 -55l-118 237zM590 160l300 520l126 -207q8 -42 8 -89v0q0 -118 -51 -224h-383zM1016 473l-126 207v-520h83q51 106 51 224q0 45 -8 89zM798 522l40 16l-8 -61l41 47l19 -84l34 100l78 -43l-112 183zM6 307l208 360l318 -519h-475
q-51 97 -56 210zM532 148l-318 519v-519h318zM123 509l40 17l-9 -62l41 47l19 -83l34 99l78 -43l-112 183zM359 854q25 0 43 -18t18 -43t-18 -43t-43 -18t-42.5 18t-17.5 43t17.5 43t42.5 18zM138 245l-17 10l-35 -49l-53 -2q55 -148 186 -240t293 -92q164 0 295.5 93.5
t185.5 242.5l-44 32l-14 -10l-61 49l-24 3l-56 -16l-24 17l-25 -20l-33 13l-21 -5l-34 -16l-11 -18l-34 -16l-24 -2l-78 -39l-71 32l-30 -9l-18 28l-53 -14l-42 40l-54 22l-30 -12l-19 16zM217 763q8 0 15 -3q8 7 19 7v0q9 0 16.5 -5.5t9.5 -14.5q11 -4 14 -15q0 2 2 2v0
q9 0 15 -6.5t6 -15t-6 -15t-15 -6.5q-5 0 -10 3q-5 -16 -21 -16q-8 0 -15 7q-6 -7 -15 -7v0v0q-8 0 -14 6q-7 -7 -16 -7v0v0q-9 0 -15 6h-6q-10 0 -17.5 7.5t-7.5 18t7.5 18t17.5 7.5q1 0 3 -1q1 13 10.5 21.5t22.5 8.5zM645 765q8 0 15 -4q8 8 19 8v0q10 0 17 -6t9 -15
q11 -3 15 -14q0 1 2 1q8 0 14.5 -6t6.5 -15t-6.5 -15t-14.5 -6q-6 0 -11 2q-4 -15 -20 -15v0q-9 0 -15 6q-6 -6 -15 -6v0v0q-9 0 -15 6q-6 -7 -16 -7v0v0q-9 0 -15 6q-2 -1 -5 -1q-11 0 -18.5 7.5t-7.5 18t7.5 18t18.5 7.5h2q1 12 10.5 21t22.5 9zM176 -3l2 23l50 -39l2 31
l4 2l50 22q131 58 243 101l5 30l46 -39l5 30l13 5q389 146 832 179l-781 -161l10 18l36 -18l10 18l1 1l3 1q7 2 10 3h2l10 19l37 -21l10 19l6 1q3 1 5 2l57 20l8 22l38 -47l5 14l7 23l39 -27l7 23h16q12 0 23 -1q10 -2 19 -3q-46 -165 -182.5 -270.5t-311.5 -105.5
q-95 0 -181 33t-155 92z" />
    <glyph glyph-name="parachute__easyiconnet" unicode="&#xe61e;" 
d="M0 368v-12q0 -29 7 -59v0q29 -170 156.5 -288t300.5 -134h2q5 -1 9 -1h4q3 -1 8 -1h2.5h2.5h4.5h2.5h9q2 -1 4 -1v0q5 0 12 1h1h11h3q6 1 10 1h4q3 0 7 1q171 16 297.5 132.5t157.5 284.5q4 17 7 56v0h1v0v6v2v0v1q6 72 -15 149v3q-43 168 -181 277.5t-315 109.5
q-183 0 -323 -114.5t-177 -288.5q-10 -34 -12 -94v-15v-1v-15zM1021 439q-5 37 -13 67v3q-8 30 -19 59v0l-21 -11l-27 -2l-71 1l-34 -7l-25 7l-54 -10l-12 -11l-68 25l-14 -6l-37 15l-63 -40l-20 6l-37 -29l-47 14l-82 73l-15 -8l-17 -19l-30 21l-18 -10l-44 28l-33 -11h-34
l-61 -43l-17 7l-35 -9l-54 -25q-4 -16 -7 -31q-10 -34 -12 -94v-14l18 11l38 23l22 -3l30 -26l23 -6l32 9l30 -17l55 -14l93 4l33 53l31 23l41 -35l109 51l91 -53l10 -19l23 -14l16 -19l32 28l6 24l27 8l12 21l30 7l41 -27l35 -45l52 16l59 35l23 5zM0 368v-12q0 -29 7 -59
v0q3 -18 8 -36l36 2l56 -36l70 3l31 44l15 -9l49 34l17 -14l27 10l48 -19l37 -36l48 12l16 -24l27 7l63 -28l70 35l22 2l30 14l10 16l30 14l19 4l29 -11l22 18l22 -15l50 14l21 -3l55 -44l12 9l46 -32l7 3q9 30 15 61q4 17 7 56v0h1v0v6v2v0v1q3 34 -2 82l-9 -14l-23 -5
l-59 -34l-52 -17l-35 45l-41 27l-30 -7l-12 -21l-27 -8l-6 -24l-32 -28l-16 19l-23 14l-10 19l-91 53l-109 -51l-41 35l-31 -23l-33 -53l-93 -4l-55 14l-30 17l-32 -9l-23 6l-30 26l-22 3l-38 -23l-18 -11v-2v-15zM223 265l-15 9l-31 -44l-70 -3l-56 36l-36 -2
q39 -157 162.5 -264t286.5 -122h2q5 -1 9 -1h4q3 -1 8 -1h2.5h2.5h4.5h2.5h9q2 -1 4 -1v0q5 0 12 1h1h11h3q6 1 10 1h4q3 0 7 1q154 14 274 112t166 244l-7 -3l-46 32l-12 -9l-55 44l-21 3l-50 -14l-22 15l-22 -18l-29 11l-19 -4l-30 -14l-10 -16l-30 -14l-22 -2l-70 -35
l-63 28l-27 -7l-16 24l-48 -12l-37 36l-48 19l-27 -10l-17 14zM235 718v0q15 0 28 -7q16 15 37 15q18 0 32.5 -11.5t18.5 -28.5q8 -3 16 -10t11 -15h4q17 0 29 -12t12 -29t-12 -29.5t-29 -12.5q-10 0 -20 5q-3 -13 -14 -21t-25 -8q-17 0 -29 12q-12 -12 -30 -12v0v0
q-16 0 -28 11q-12 -14 -30 -14v0v0q-17 0 -29 12q-5 -1 -11 -1v0q-20 0 -34.5 14.5t-14.5 35t14.5 34.5t34.5 14h5q2 24 20.5 41t43.5 17zM693 738q11 0 20 -4q10 10 25 10v0q12 0 22 -8t13 -19q13 -5 18 -18q1 1 3 1v0q11 0 19.5 -8.5t8.5 -20t-8.5 -20t-19.5 -8.5
q-7 0 -14 4q-5 -21 -27 -21v0q-11 0 -20 9q-8 -9 -20 -9v0v0q-11 0 -19 8q-8 -9 -21 -9v0v0q-11 0 -19 8q-4 -1 -8 -1v0q-13 0 -23 10t-10 24t10 23.5t23 9.5h3q2 17 14.5 28t29.5 11zM462.5 857q31.5 0 53.5 -22.5t22 -54t-22 -53.5t-53.5 -22t-54 22t-22.5 53.5t22.5 54
t54 22.5zM177 649q2 0 4 0.5t9 1t11 -1.5q5 0 16.5 -5.5t18.5 -5.5q10 0 10 4q-8 -2 -10 5q-2 5 2.5 9t16.5 13q19 12 14 24q-3 -4 -14 -10q-5 -2 -9.5 -6t-9.5 -9.5t-8 -8.5q-7 -6 -9 -6.5t-8 0.5q-25 5 -34 -4zM443 -123q4 22 24 51q8 12 11 18q5 7 5.5 13t-2 11.5t-4.5 9
t-7 8.5q-7 7 -9 10l-2 3v1h1q27 14 59 14h1q33 0 61 -15v0v-1l-1 -1q-3 -4 -9 -11q-5 -5 -7.5 -8.5t-5 -9t-1.5 -11.5t5 -13t12 -18q19 -27 23 -48q-18 -3 -37 -5q-3 -1 -7 -1h-4q-4 0 -10 -1h-3h-11h-1q-7 -1 -12 -1v0q-2 0 -4 1h-9h-3h-4h-2.5h-2.5q-5 0 -8 1h-4
q-4 0 -9 1h-2q-11 1 -21 2zM412 70l-118 250l-73 38l5 -69h-1zM289 332l-36 76l6 4l36 -77l17 155l77 -98l-8 91l8 1l8 -93l100 156l108 -142l-2 93h8l2 -87l56 94l43 -145l28 83l7 -3l-27 -79l70 55l11 -70l10 15l6 -5l-203 -306l-8 341l-108 142l-100 -155l26 -332
l-232 269l6 6l19 -23l-5 73zM302 322l116 -246l-27 301l-74 93zM795 337l-10 64l-70 -54l-88 -262zM707 347l-40 139l-54 -90l8 -307zM814 332q-10 36 -49 65q-21 15 -22 7q-41 45 -94.5 72.5t-114 32t-119.5 -13.5t-117 -69.5t-102 -131.5q-76 192 42 302q89 82 249 90
q151 7 261 -56q117 -68 108 -180q-4 -56 -42 -118zM564 -20l-8 2l60 85l8 -3zM474 0l-56 49l7 4l56 -50zM504 95q0 2 -4 4v0l-2 3q1 2 1.5 4t0.5 4v1l-5 9l-3 -9l-1 -2h-1v-3q-1 -2 -1 -3l-2 7l-1 -1l-2 9q-2 -1 -4 -3v5h-2l2 10q-14 -5 -26 -4q-5 0 -8.5 0.5t-4.5 1.5l-2 1
q8 -9 19 -13h-3q-5 0 -9 1t-5 2l-1 1q10 -12 23 -14l-1 -1q-5 -2 -8.5 -2.5t-5.5 0.5h-1q1 -1 3 -1.5t7.5 -2t10.5 -1.5q-2 -1 -3 -1q-5 -2 -8.5 -2.5t-5.5 -0.5h-1q1 0 3.5 -1t10 -3t13.5 0l-20 -12q14 4 25 9v-1l-13 -20q15 10 22 18q-1 -4 -2 -7q-2 -5 -3.5 -8.5
t-3.5 -3.5l-1 -1q3 1 7 3t10.5 10t5.5 18zM533 97q0 2 5 4v0l2 2q-1 3 -2 5t-1 3v1l5 10l3 -10l1 -2l1 1v-3q1 -2 1 -3l2 6h1q0 4 2 9v0q2 -1 5 -3l-1 5h2l-1 10q14 -5 25 -5q5 1 9 1.5t5 1.5l1 1q-8 -9 -19 -13h1.5h2.5q5 0 8.5 1t4.5 2h1q-10 -11 -23 -13l2 -1
q4 -2 8 -2.5t5 0.5h1q-1 -1 -3 -2t-7.5 -2.5t-10.5 -0.5q3 -1 4 -2q4 -1 8 -1.5t5 -0.5h1q-1 -1 -3.5 -2t-10 -2.5t-12.5 0.5l19 -12q-14 4 -25 9v-1l14 -21q-16 11 -23 19q1 -3 2 -8q2 -4 4 -7.5t3 -4.5h1q-3 1 -7 3t-10.5 10t-5.5 18zM591 155q-9 4 -16 -12t2 -20.5t16 12
t-2 20.5zM454 79h123q6 0 10.5 -4.5t4.5 -10.5v-46q0 -6 -4.5 -10.5t-10.5 -4.5h-123q-6 0 -10.5 4.5t-4.5 10.5v46q0 6 4.5 10.5t10.5 4.5zM542 76q0 -1 -24 -1.5t-24 -1.5q-5 -6 -9.5 -16.5t-9.5 -15t-17 -7.5q-10 -2 -2 -4q35 -7 35 -19l65 3q0 12 31 18q7 1 -3 3.5
t-14.5 11t-11.5 13.5q-10 7 -16 16zM543 121v-61q-10 -13 -24.5 -13t-24.5 13v61q0 16 12.5 22t24.5 0t12 -22zM543 121v-41q-14 -11 -24.5 -11t-24.5 11v41q0 16 12.5 22t24.5 0t12 -22zM518.5 79q-13.5 0 -33.5 18t-27 44q-9 30 7.5 59.5t53 29.5t53 -29.5t8.5 -59.5
q-8 -26 -28 -44t-33.5 -18zM447.5 155q9.5 4 16.5 -12t-2.5 -20.5t-16.5 12t2.5 20.5zM465 183q-1 -4 -1.5 -8.5t-0.5 -6v-5t0.5 -8t2 -12t4 -13t3.5 -6.5l2 -2q-4 3 -9.5 7t-13.5 18t-5 28q1 5 18 8v0zM567 177q4 -20 2 -35q-1 -7 -2.5 -11.5t-2.5 -6.5l-1 -1q3 2 7.5 5.5
t10.5 15.5t2 25q0 2 -4 4t-8 3zM446 160q21 23 52 24q49 0 75 -27q8 -8 13 -11.5t6 -3.5h1v0q2 4 3 8q1 3 4 7t2 6q-2 12 -1 16t-3 15.5t-13 20.5q-3 3 -10.5 11.5t-12.5 13.5t-15.5 10.5t-23.5 6.5t-20.5 0t-10 -2.5t-4.5 -3.5t-4 -2q-1 0 -6 -1t-7 -2t-6.5 -4t-8.5 -8.5
t-8 -13.5q-3 -6 -3.5 -11t-0.5 -10t-1 -7q0 -5 -2.5 -10.5t-2.5 -6.5q0 -5 8 -15zM480 -28v1q-3 5 -11 14q-6 6 -9 10q-4 6 -5 15q-4 -2 -10 -6l-1 -1v2q0 47 36 58v0q0 -1 -1 -2q-1 -2 0 -4q8 -9 38 -9h2h7.5h10.5t10 1t8.5 3t1.5 6q21 -6 29.5 -18.5t8.5 -34.5v-2l-2 1
q-5 4 -9 6q-1 -9 -6 -15q-2 -4 -8 -10q-9 -9 -11 -14l-1 -1q-38 -46 -78 0zM542 172q22 1 28 -24q3 -12 -3 -19t-20 -7q-14 -1 -24 16q0 1 -1 1q-2 4 -3.5 4t-3.5 -4v-1q-10 -17 -24 -17q-13 0 -20 6.5t-4 18.5q5 25 27 26h48zM542 172q22 1 28 -24q3 -12 -3 -19t-20 -7
q-14 -1 -24 16q0 1 -1 1q-2 4 -3.5 4t-3.5 -4v-1q-10 -17 -24 -17q-13 0 -20 6.5t-4 18.5q5 25 27 26h48zM542 175l-48 -1q-25 0 -30 -27q-3 -14 4.5 -21.5t22.5 -7.5q10 0 17 7q4 4 9 12l0.5 0.5l0.5 0.5q0 1 1 2q0 -1 1 -2v-0.5t1 -0.5q4 -8 10 -12q7 -6 16 -6q15 0 22 8
t4 21q-6 27 -31 27zM568.5 147.5q-5.5 23.5 -26.5 22.5h-24h-24q-20 -1 -25 -24q-2 -13 4.5 -18t17.5 -5q12 0 21 16q4 6 7 6t6 -6q10 -16 22 -15q27 0 21.5 23.5zM464 146q2 9 5 14l-16 4q-5 1 -6 -4l-4 -14v-1v-2q1 -2 3 -2l18 -4q-1 4 0 9zM573 148q-2 9 -5 14l14 4
q5 1 6 -4l4 -14q1 0 1 -1t-1 -2q-1 -2 -3 -2l-15 -4q0 4 -1 9zM446 46q4 5 9 9q4 3 9 6l2 1l12 3q0 -25 -2 -33q-3 -11 -13 -17v0q-3 -3 -6 -7q-7 -8 -12.5 -19t-10.5 -14.5t-17 -2.5q-25 2 -50 24q-5 9 0 16.5t14 5.5l8 -4q17 -10 23 -11.5t7.5 2.5t8 16.5t18.5 24.5z
M504 64q-5 -7 -7 -13q-1 -8 -1 -19.5t1 -19.5v-8q-20 -1 -24 8q-1 1 -4.5 -0.5t-5.5 -4.5l4 36q2 11 5 15q1 2 6 6.5t7 4.5zM494 85q-1 -7 3 -7q6 -3 22 -3q19 0 24 4v5l6 -3q-2 -9 1 -12l2 -2q3 -1 -2 -4q-10 -6 -32 -6q-17 0 -30 5q-10 5 -6 8q2 1 6 7q1 1 -0.5 3t0.5 3z
M529 111q-5 -18 -11 -18q-2 0 -5 4.5t-4 8.5l-1 5q4 2 10 2q11 0 11 -2zM379 18q4 -4 4 -10v0v0q0 -12 -11 -16q-2 2 -5 4q-5 9 -0.5 16t12.5 6zM368 -6l58 59l-6 6l-57 -60zM369 22q3 3 10.5 -5t4 -10.5t-10.5 5t-4 10.5zM364.5 19q3.5 3 10.5 -5t4 -10.5t-10.5 5t-4 10.5z
M361 16.5q3 2.5 10.5 -5t4 -10.5t-10.5 5t-4 10.5zM357 13q3 3 10.5 -5t4 -10.5t-10.5 5t-4 10.5zM590 40q-4 6 -9 10q-4 3 -9 6l-2 1l-13 3q0 -25 3 -33q1 -5 4.5 -9t6.5 -6l2 -2q1 -1 3.5 -4l2.5 -3q7 -8 12.5 -19t10.5 -14.5t17 -2.5q25 1 50 23q5 10 0 17.5t-14 5.5
l-8 -4q-17 -11 -23 -12t-8 3t-8 16.5t-18 23.5zM657 13q-4 -4 -4 -11v0q0 -12 11 -15q2 1 5 3q5 9 0.5 16.5t-12.5 6.5zM675 -16l-63 67l5 5l63 -67zM667 17q-3 3 -10.5 -5t-4.5 -11t10.5 5t4.5 11zM671.5 14q-3.5 3 -10.5 -5t-4 -11t10.5 5t4 11zM675 11q-3 3 -10.5 -5
t-4 -10.5t10.5 5t4 10.5zM678.5 8q-3.5 3 -10.5 -5t-4 -11t10.5 5t4 11zM459 79h10v-92l-8 8zM580 79h-11v-93l8 9zM855 437q-12 -5 -25 -5v0q-29 0 -49 21t-20 50q0 25 16.5 44.5t40.5 24.5q48 -59 37 -135zM179 373q31 0 52 -24q-19 -26 -35 -55q-16 41 -23 79h6zM207 560
q34 -21 34 -61q0 -29 -20 -49.5t-48 -20.5h-6q0 74 40 131zM340 518q36 0 56 -30q-62 -26 -114 -78q-11 18 -11 38q0 29 20 49.5t49 20.5zM524 518q22 0 39 -13q-27 5 -54 5q-9 0 -18 -1q15 9 33 9v0zM455.5 664q28.5 0 48.5 -20.5t20 -49.5t-20 -49.5t-48.5 -20.5
t-48.5 20.5t-20 49.5t20 49.5t48.5 20.5zM349 660q-1 -27 -21 -46.5t-47 -19.5v0q-18 0 -34 9q42 36 102 57zM671 663q-4 -25 -23 -42t-45 -17q-28 0 -48 20.5t-20 49.5q0 6 1 12q71 -3 135 -23zM652 532q28 0 48 -20.5t20 -49.5q0 -16 -6 -30q-54 47 -121 66q20 34 59 34z
M597 770q2 0 4 0.5t9 1t11 -1.5q5 -1 16.5 -6t18.5 -6q11 0 10 4q-8 -1 -10 6q-2 5 2.5 8.5t17.5 12.5q18 13 13 25q-3 -4 -13 -10q-5 -2 -10 -6t-10 -9.5t-8 -8.5q-7 -6 -9 -7t-8 1q-25 5 -34 -4z" />
    <glyph glyph-name="planet_earth__easyiconnet" unicode="&#xe61f;" 
d="M512 896q139 0 257 -68.5t186.5 -186.5t68.5 -257t-68.5 -257t-186.5 -186.5t-257 -68.5t-257 68.5t-186.5 186.5t-68.5 257t68.5 257t186.5 186.5t257 68.5zM74 384q0 -89 34.5 -170t93.5 -140t140 -93.5t170 -34.5t170 34.5t140 93.5t93.5 140t34.5 170t-34.5 170
t-93.5 140t-140 93.5t-170 34.5t-170 -34.5t-140 -93.5t-93.5 -140t-34.5 -170zM188 384q0 -88 43.5 -162.5t118 -118t162.5 -43.5t162.5 43.5t118 118t43.5 162.5t-43.5 162.5t-118 118t-162.5 43.5t-162.5 -43.5t-118 -118t-43.5 -162.5zM782 384q0 -112 -79 -191
t-191 -79t-191 79t-79 191t79 191t191 79t191 -79t79 -191zM763 384q0 -104 -73.5 -177.5t-177.5 -73.5t-177.5 73.5t-73.5 177.5t73.5 177.5t177.5 73.5t177.5 -73.5t73.5 -177.5zM334 207q-73 73 -73 177t73.5 177.5t177.5 73.5q74 0 136 -40q73 -74 73 -177.5t-73.5 -177
t-177.5 -73.5q-74 0 -136 40zM299 473q2 -1 1 -10.5t0 -11.5q3 -11 9 -15t9 -2q1 1 1 3.5v3.5q-1 2 -6 6t-5 6q-5 11 0 16l2 0.5t3 -0.5q2 -1 1 -7t0 -8t9 -8.5t8 -10.5q0 -1 -2.5 -4t-2.5 -4q0 -10 10 -17q3 -2 9.5 -3.5t9.5 0.5q1 0 1 2v2q5 3 9 -2v-3v-3q2 -2 8 -1.5
t8 -0.5q3 -1 8 -9t7 -9t10.5 -0.5t9.5 -1.5q2 -2 2 -6.5t-1 -6.5t-6.5 -5.5t-6.5 -4.5q-5 -10 -2 -22q2 -4 10 -13t10 -13v-4t1 -4q0 -1 3.5 -0.5t4.5 0.5q11 -3 15 -11q2 -5 -1.5 -23.5t0.5 -22.5l2.5 0.5t2.5 -0.5q2 -2 -0.5 -9t-2.5 -9q1 -1 4 -4.5t4 -4.5q1 -2 0 -12
t0 -12q0 -7 1 -10.5t7.5 -9.5t17.5 -11q10 -4 15 0q1 1 0.5 2.5t-5 4.5t-5 5t2.5 8t1 8q0 1 -3 0.5t-4 0.5q-4 2 -4 5q0 1 3 2.5t3 2.5q1 2 0 3t-3.5 1.5t-3 1.5t-0.5 2.5v2.5q1 0 12 2.5t17 12.5q1 2 8.5 10.5t8.5 12.5q0 2 -2.5 9t-1.5 10t3 4t8 -1t8 -1q7 1 11 7
q2 4 1.5 16.5t1.5 16.5q1 3 6.5 7.5t5.5 6.5q3 7 0 9q-1 1 -4.5 3.5t-10.5 8.5q-2 2 -8 2.5t-11 0t-9 -0.5q-11 2 -14 6q-1 1 0.5 6t0.5 7q-2 7 -7 10q-1 1 -7.5 0.5t-8.5 0.5t-5.5 7.5t-5.5 7.5q-1 1 -3 1t-2 -1q-1 0 -1 -1.5v-1.5q-3 -2 -8 -2t-7 2q-2 0 -4.5 2.5
t-4.5 2.5t-8 -1.5t-16 -6.5q-3 -2 -10.5 -1t-10.5 4q-1 2 0.5 10.5t-0.5 10.5q-1 2 -7.5 2t-7.5 1.5t2.5 7t2.5 7.5q-1 3 -6 2q-3 0 -9.5 -6t-8.5 -6q-10 -3 -17 8q-12 16 25 31q26 10 34 1q1 -1 0 -4.5t0 -4.5q1 -2 4 -3.5t5 -0.5t1.5 7t-0.5 8q2 3 11 9t11 9q1 1 1 3.5
v2.5q3 5 15 13l15 10q1 1 4.5 8t5.5 7q1 0 4 -2t4 -2t2.5 1.5t1.5 2.5t-3.5 2t-3.5 2q-2 4 2 5q2 1 7 -3t7 -3.5t4.5 2.5t3.5 3q3 0 3 -3l-1.5 -1l-1.5 -1q-2 -4 0 -6.5t7.5 -4.5t8.5 -1q1 1 2 4t0 5q0 1 -4 1.5t-5 1.5v2t0.5 1.5t3 1.5t3.5 2v3.5t-0.5 4t-4.5 3.5t-4.5 3.5
t0 8t-1.5 6.5q-1 1 -5.5 -2t-5.5 -3q-4 -1 -5 0t-0.5 4.5t0.5 4.5q-2 3 -8 5t-10 1q-5 0 -8 -6q-1 -2 0.5 -9.5t-0.5 -8.5q-1 -2 -6 -2t-6.5 -0.5t-3.5 -5.5t-3 -6q-4 -3 -5 -1q-2 1 -0.5 7t0.5 7t-8 2.5t-11 3t-1.5 6t15.5 11.5q1 1 5 3.5t7 4t5 0.5q1 -1 1 -4t1 -4
q3 -2 7 2v2.5t0.5 3t3 0l2.5 -0.5q2 1 5 6t4 6l19 3l4 -5q0 -2 -4 -4t-7.5 -4t-3.5 -4q1 -4 9.5 -5.5t12.5 0.5q1 0 2 3l1 3q1 1 6 0.5t6 0.5q4 4 2 8q0 1 -2.5 1.5t-3.5 0.5v9q-2 1 -4.5 3t-9 5.5t-12.5 5t-12.5 -0.5t-10.5 -9q0 -1 0.5 -5.5t-1.5 -4.5q-1 -1 -4.5 -1
t-4.5 1t-1.5 3.5t0.5 4.5q0 1 2.5 2t4.5 2t1 2q-1 3 -7.5 3t-10.5 -2q-6 -3 -4 -7q0 -1 2 -0.5t2 -0.5q1 -1 1.5 -3.5t-0.5 -3.5t-5.5 0.5t-5.5 0.5t-1 -2.5v-1.5q-3 -2 -9 -2.5t-8 1.5q-1 1 -1 4t1 4t6 0t6 0q7 3 6 8q0 3 -4 3l-5 -4v0q-1 -1 -4 1q-4 3 -7 6q-1 1 -5.5 1
t-8.5 -1h-4l-9 -10h8l-3 -7q11 2 13 -1q1 -1 -1 -3l-15 -3l-4 7l-11 3l-8 1q-59 -37 -90 -100l1 -2v-0.5v-2t0.5 -3t1.5 -3.5l2 -4t2.5 -4.5t3.5 -3.5zM428 308h5q13 -4 18 -15q3 -4 0 -21.5t-3 -20.5q4 1 7 -2q2 -4 1.5 -7t-2 -7.5t-1.5 -5.5t3 -4t4 -5q2 -3 1 -13t-1 -12
q2 -11 6.5 -16t17.5 -11q-2 2 -3 5q-1 4 3 13q-2 0 -4 1q-7 4 -7 10q0 4 3 6q-1 0 -2 1q-6 7 1 13q3 3 12.5 4.5t14.5 9.5q1 2 8 10.5t8 10.5q0 2 -2.5 8.5t-1.5 10.5q1 7 7 9q4 1 9.5 -0.5t6.5 -1.5q5 1 7 4t2 15.5t2 17.5q1 3 6 7.5t6 6.5v2q-2 2 -7 6t-7 5q-1 1 -6.5 1
h-10.5h-8q-14 2 -18 9q-2 1 -0.5 7.5l1.5 6.5q-2 4 -4 6q-2 1 -8 0t-9 1t-4.5 4.5t-3 6t-1.5 4.5l-2 -2q-3 -2 -10 -2.5t-11 1.5q-2 1 -4 3l-2 2q-3 2 -21 -8h-1q3 -9 -1 -17q-2 -4 -7 -6.5t-6 -3.5q-1 -2 -1.5 -8t0.5 -9t9 -12t10 -13q1 -2 1 -5zM393 396q1 2 1.5 6t0.5 6
h-5t-6.5 1t-3.5 4q-3 5 2 12l-3.5 -3.5t-5.5 -4.5t-5 -3q1 0 1 -1q2 -2 2 -6q11 1 13 0q4 -2 9 -11zM353 416q-8 5 -11.5 12.5t3.5 17.5t27 18q29 12 41 0v0v1q3 5 12 10.5t10 6.5l1 7q4 7 16 14t15 10q0 1 4 8t9 9q-1 6 5 8.5t14 -4.5q2 -1 3 -2q0 1 2 3t4 2q4 1 8 -1
q1 1 5 2v0q-1 1 -4.5 3t-4.5 5q-2 3 -1 9l-6 -3q-7 -1 -11 3q-2 2 -1 9q-6 4 -11 4q-2 -1 -4 -3q0 -1 1.5 -9.5t-2.5 -10.5q-1 -3 -3.5 -3.5t-5.5 0t-4 0.5q-1 -1 -2.5 -5.5t-4.5 -6.5q-7 -5 -12 -1q-2 2 -2.5 4t-0.5 3.5t0.5 4t0.5 3.5q-1 0 -3.5 1t-3.5 1q-13 3 -14 9
q-4 10 19 22q1 0 6.5 3.5t8.5 4.5q-1 0 -6 1q0 -2 -2 -3q-4 -3 -12 -3.5t-12 3.5q-1 1 -2 3q-1 -1 -1 -2q-5 -5 -20 -5h-3l-5 8l-8 2l-5 1q-56 -35 -86 -94v0l1 -1q1 -11 8 -18q1 -1 2 -3q7 4 12 0q2 -3 2.5 -6t0 -6.5t-0.5 -5.5q1 -1 9.5 -7.5t8.5 -12.5q0 -3 -5 -10
q2 -7 7 -11q4 -3 11 -3q0 3 3 4zM458 585h1q3 0 5 -1q1 0 2 -1q1 0 2 1q-4 1 -6 2v1h-1q-1 -1 -3 -2zM483 595q7 4 21 4h3l1 -2q6 -6 6 -10q-1 -5 -12 -10q5 -1 9 -1q2 5 4 6q3 2 7 2l-1 1q-2 3 -1 9q-28 21 -37 5v-4zM422 595q1 3 3 4l2 2q-3 2 -4 3h-8l-2 -6q6 0 8 -3h1z
M475 510q-5 0 -5 -3.5t5 -3.5t5 3.5t-5 3.5zM490.5 512q-0.5 0 -3.5 0.5t-4 -0.5q-2 -3 2 -6q3 -2 6 -1l0.5 2.5t1 2.5t2.5 -1t3 -1q1 1 1 4t-1 4t-3 1t-3 -1l-0.5 -2t-1 -2zM658 557q0 -1 1 -4.5t2 -4t5 1t6 0.5q1 -1 1 -5t-1 -6q-2 -2 -9.5 -1t-9.5 0t-5 -7t-5 -7t-6.5 0
t-6.5 0q-1 -1 -1.5 -5t0.5 -6l1.5 -0.5t2.5 -0.5q1 -1 1 -4t-1 -4q-3 -1 -5.5 -0.5t-7 1.5t-6.5 0q-8 0 -8 -7q1 -13 2 -15q3 -3 10 -3q8 1 16 8q2 1 6 7.5t6 8.5q2 0 6.5 -1.5t5.5 -0.5q1 0 3 4t4 3q1 0 1 -3t1 -4q1 -2 8 -5t8 -5t-1 -5.5t-1 -4.5t2 -1l7 10q-11 8 -13 12
q-3 6 -2 7q2 4 10 1t11 -9q0 -2 0.5 -6t0.5 -5q6 -11 10 -9q2 1 3.5 7t6.5 9q-1 -8 0 -11q3 -6 7 -8q2 -1 6.5 -0.5t9.5 1.5h4q-24 58 -73 98l-3 -5l-11 -4q-6 -4 1 -12zM655 510q4 8 11 7q2 0 3 -1q7 7 19 2q11 -4 15 -13q1 -3 1 -6v-5v0q2 7 9 11l7 4q-19 32 -47 57v0
l-4 -1q-4 0 -7 -1l2 -2q1 -2 2 -5q6 3 10.5 -0.5t4.5 -11t-4 -11.5q-2 -3 -6 -3.5t-8.5 0t-5.5 0.5t-4 -6t-7 -8q-3 -2 -7 -1q2 -3 2 -6q1 0 2 1q4 1 12 -1zM725 502l-1 -4v-8l2 -2v-2h7zM631 496q-3 -1 -8.5 0.5t-7.5 1.5h-1v-10h4q5 0 11 6q1 0 2 2zM751 460
q-2 0 -5.5 -0.5t-12.5 -1t-10 0.5q-2 1 -5 4.5t-5 3.5q-9 4 -13 0q-1 0 -1 -3t-1 -3q-4 -5 -13 -2.5t-17 9.5q-2 1 -0.5 6.5t0.5 7.5q-7 6 -30 -2l-3 -3t-3 -2q-3 -1 -10.5 -0.5t-9.5 0.5q-8 -3 -11 -8q0 -1 0.5 -6t-0.5 -6q-1 -4 -13 -10t-14 -10t2 -8h2.5t2.5 -1
q1 -1 0.5 -4.5t-1.5 -4.5h-3h-2q-6 -7 0 -22q2 -7 10 -16.5t14 -12.5q2 -1 6 -0.5t5 1.5q1 0 1 1.5v1.5q1 1 9 0t10 0l1.5 2.5l1.5 2.5q2 1 6.5 1.5t6.5 -0.5q1 -1 2.5 -4.5t2.5 -3.5q2 -1 7.5 0t6.5 0q2 -1 1 -11.5t0 -12.5q1 -3 8 -13t7 -15q1 -3 -3.5 -10t-4.5 -9
q-1 -6 0 -9q1 -1 4.5 -3t3.5 -4q2 -2 0.5 -9.5t-0.5 -9.5t4.5 -5.5t3.5 -4.5v-21h22q52 68 52 153v0q0 39 -12 76zM582 408q-1 -6 1 -10q2 -5 8.5 -13.5t10.5 -10.5h1q1 2 2 3q3 2 6 2.5t8 -0.5l5 -1q2 3 5 5q10 6 21 1q3 -2 6 -8q11 2 15 -1.5t4.5 -8.5t-0.5 -11t-1 -9
q1 -3 8.5 -12.5t7.5 -16.5q0 -6 -4 -13t-4 -9q-1 -1 -1 -2q7 -5 8 -8q3 -3 1.5 -11l-1.5 -8q1 -2 4.5 -5t4.5 -7t1 -14h8q47 64 47 144q0 34 -9 66q-18 -1 -25 1q-4 1 -7 4.5l-3 3.5q-1 0 -3 1q0 -3 -3 -6q-10 -7 -21.5 -4t-20.5 12q-5 4 -3 13q-7 0 -17 -3l-2.5 -2t-4.5 -3
q-4 -2 -11 -1t-9 0q-3 0 -5 -2q0 -11 -1 -13q-2 -4 -6 -7t-10 -6t-7 -4l2 -2q3 -5 2 -11.5t-4 -9.5q-2 -2 -4 -3zM427.5 713q6.5 0 6.5 -6.5t-6.5 -6.5t-6.5 6.5t6.5 6.5zM635 747zM515 859v0q5 0 5 -5.5t-5.5 -5.5t-5.5 5.5t6 5.5zM839.5 33q3.5 0 3.5 -3t-3.5 -3t-3.5 3
t3.5 3zM243.5 45q3.5 0 3.5 -3.5t-3.5 -3.5t-3.5 3.5t3.5 3.5zM617 -83zM943 407q4 0 4 -3.5t-3.5 -3.5t-3.5 3.5t3 3.5v0zM886 474v0q4 0 4 -3.5t-4 -3.5v0q-3 0 -3 3.5t3 3.5zM906.5 328q3.5 0 3.5 -3.5t-3.5 -3.5t-3.5 3.5t3.5 3.5zM698.5 74q3.5 0 3.5 -3.5t-3.5 -3.5
t-3.5 3.5t3.5 3.5zM169 683v0q3 0 3 -3.5t-3.5 -3.5t-3.5 3.5t4 3.5zM319 779q4 0 4 -3.5t-3.5 -3.5t-3.5 3v0q0 4 3 4v0zM41.5 400q3.5 0 3.5 -3.5t-3.5 -3.5t-3.5 3.5t3.5 3.5zM193.5 289q3.5 0 3.5 -3.5t-3.5 -3.5t-3.5 3.5t3.5 3.5zM208.5 162q3.5 0 3.5 -3.5t-3.5 -3.5
t-3.5 3.5t3.5 3.5zM790 744v0q4 0 4 -3.5t-4 -3.5v0q-3 0 -3 3.5t3 3.5zM833 684v0q6 0 10 -4t4 -9.5t-4 -9.5t-10 -4v0q-5 0 -9 4t-4 9.5t4 9.5t9 4zM375 5v0q6 0 6 -6.5t-6 -6.5v0q-7 0 -7 6.5t7 6.5zM889.5 228q10.5 0 17.5 -7.5t7 -18t-7 -17.5t-17.5 -7t-18 7
t-7.5 17.5t7.5 18t18 7.5zM198.5 505q6.5 0 11.5 -5t5 -11.5t-5 -11.5t-11.5 -5t-11.5 5t-5 11.5t5 11.5t11.5 5zM280 658q6 0 6 -6.5t-6 -6.5t-6 6.5t6 6.5z" />
    <glyph glyph-name="river__easyiconnet" unicode="&#xe620;" 
d="M512 896q139 0 257 -68.5t186.5 -186.5t68.5 -257t-68.5 -257t-186.5 -186.5t-257 -68.5t-257 68.5t-186.5 186.5t-68.5 257t68.5 257t186.5 186.5t257 68.5zM40 582h127q26 -25 52.5 -54t64.5 -74t62.5 -88.5t25.5 -72.5q1 -27 17.5 -44.5t37 -24.5t43.5 -17t31 -23
q-20 -10 -62 -27.5t-45 -18.5q-19 -9 -47 -22.5t-42.5 -20.5t-39.5 -13.5t-53 -8.5q-25 -2 -106 -1q-106 138 -106 312q0 104 40 198zM984 582q40 -94 40 -198q0 -96 -35 -185l-10 8q2 7 2 14q-1 6 -1 11q-5 72 -143 159q-22 14 -65 39q-83 50 -93 66q-9 17 23 26q3 0 6 1
q-54 36 -173 59h449zM141 737q27 -6 77.5 -20.5t65.5 -18.5q35 -8 81 -13.5t54 -6.5q15 -3 28.5 -8t30 -11t26.5 -10q12 -4 46.5 -13t53.5 -16q15 -5 48 -20t51 -21q25 -8 25 -9q0 -5 -144 -9q-268 -8 -557 -12q36 106 114 188zM688 686q4 12 17 21t33.5 19.5t31.5 19.5
q18 13 44 51q123 -90 177 -231q-250 -16 -312 -2q-27 6 -36.5 18t-4 27t15.5 28.5t21 28t13 20.5zM422 613q68 32 118 72q14 11 29.5 26t25.5 23.5t17 11.5q6 3 11 1t12 -11t9 -11q12 -12 45 -22q3 -1 28.5 -8t42.5 -13q59 -19 98 -45q17 -11 49.5 -38.5t49.5 -38.5
q13 -10 41 -16q3 -7 5 -14q-188 -13 -317 -7q-230 10 -282 17q-32 4 -54.5 9t-33.5 5q-13 -1 23 18q18 10 83 41zM341 553v0v-1q-11 2 -20 2v0q-61 -1 -124 -2q63 -65 105 -121q68 -90 70 -138q1 -23 13.5 -39t27 -23t37 -15.5t32.5 -14.5q8 -5 13 -10q4 -3 6 -7
q-20 -10 -62 -27.5t-45 -18.5q-19 -9 -47 -22.5t-42.5 -20.5t-39.5 -13.5t-53 -8.5q-25 -2 -106 -1q71 -93 177.5 -146.5t228.5 -53.5q161 0 291 90.5t186 236.5l-10 8q2 7 2 14q-1 6 -1 11q-2 27 -12 51t-22.5 40.5t-33 33.5t-36 26.5t-40 24.5t-35.5 23q-39 25 -52 49
t-41 43q-9 0 -17 1q-230 10 -283 16l-10 2q-8 1 -57 11zM776 406q-16 9 -51 18q35 -9 51 -18zM554 -17q3 -1 21.5 -3.5t25 -3t24.5 0.5q17 3 28.5 12t11.5 21q1 19 -30 41q-28 19 -52 14q-30 -7 -48 -36q-14 -23 -8 -40q1 -3 3 -4t4.5 -1t8.5 -0.5t11 -0.5zM718 191
q3 0 21.5 -3t25 -3t24.5 1q17 3 28.5 12t11.5 21q1 19 -30 41q-28 19 -52 14q-30 -7 -48 -36q-14 -24 -8 -40q1 -3 3 -4t4.5 -1.5t8.5 -0.5t11 -1zM551 35q9 16 29 21q20 4 42 -7q16 -9 15 -20q0 -9 -15 -10q-6 0 -19 1t-18 1t-16 -0.5t-12 0.5q-12 2 -6 14zM715 243
q8 17 29 22q20 4 42 -8q16 -8 15 -19q0 -9 -15 -10q-6 -1 -19 0.5t-18 1.5t-16.5 -0.5t-11.5 0.5q-12 2 -6 13zM622 49q-12 18 -17 23q-3 3 -7.5 5.5t-5.5 3.5q-2 2 2 3h3q8 -1 15 -7q3 -3 5 -6t3 -5t1 -1q1 4 -6 18q-2 3 -3.5 6t-2.5 4t-1 2h2t3 -1.5t3 -4.5q2 -3 5 -11
l3 -8q3 -5 4 2q3 14 5 17q5 7 12 8q6 0 8 -3q1 -1 0 -2t-3 -2q-9 -3 -13 -8q-5 -6 -6 -16q0 -4 2 -1q5 4 6 5q8 7 15 9q9 3 15 -1q5 -3 4 -8q-1 -1 -1 -0.5t-3 2.5q-5 3 -11 2q-11 -3 -18 -12q-1 -2 -5 -15q-2 -6 -5 -6t-8 8zM552 465q37 -41 77.5 -116.5t46.5 -122.5
q3 -25 5.5 -55.5t3 -39t7 -26t16.5 -31t31 -40.5q36 -46 52 -79q-4 -3 -8 -5q-16 30 -53 75q-19 24 -29.5 38t-17.5 25t-9.5 25.5t-3.5 25t-2.5 37t-3.5 50.5q-5 49 -41.5 118.5t-77.5 127.5q3 -2 7 -7zM985 187l-1 -2l-6 8q3 -3 7 -6zM970 154l-8 -14q-4 10 -10 20
q-10 19 -46.5 42.5t-79.5 46t-84.5 48.5t-68.5 60t-25 69q6 -39 36.5 -71.5t72 -55t83 -42.5t77 -43t47.5 -47q3 -6 6 -13zM887 35l-7 -7q-5 6 -21 17t-30 25t-29 34q-2 4 -5 7q18 -17 35 -31t33 -26t24 -19zM675 -101q-4 -2 -9 -3q1 40 6 69q1 -7 3 -66zM454 -125l-3 1
l-6 28q-3 31 3.5 58t25 52.5t32.5 40.5t41 40l10 10q-16 -23 -37 -49.5t-30.5 -39.5t-19.5 -33.5t-13.5 -45.5t-2.5 -62zM267 -66q-6 3 -11 7q34 44 92 41q-55 -16 -81 -48zM160 12l-10 10q16 3 39 6q19 2 37.5 4t24.5 2.5t17 2.5t22.5 6t33.5 12q9 4 26 9.5t33 10.5
t36.5 12t38 14.5t37.5 17t33.5 19.5t27 22.5t18.5 25.5t7 29.5t-7 32.5q-36 89 -85 142t-128 80q140 -26 222 -216q8 -19 8.5 -37t-5.5 -32.5t-18.5 -28.5t-27 -25t-34.5 -21.5t-38 -18.5t-39.5 -16t-38 -13t-35 -11t-27.5 -10q-34 -12 -57.5 -16.5t-55.5 -7t-55 -5.5z
M363 520l25 -10l25 -10q16 -9 37 -20q22 -13 32 -20t46 -38q7 -6 10 -9q4 -6 5 -9q-16 20 -92.5 63.5t-87.5 52.5zM623 311l-32 129q-4 18 -18.5 27t-29.5 4l-40 -12q-15 -5 -23.5 -21t-3.5 -34l32 -131q12 -51 46.5 -64t58 17.5t10.5 84.5zM599 315l-5 21q-1 3 -4 2
l-67 -21q-3 -1 -2 -4l5 -22q1 -3 4 -2l67 21q3 1 2 4v1zM588 361l-6 22q0 3 -3 2l-68 -21q-2 -1 -2 -4l6 -22q1 -3 3 -2l68 21q2 1 2 4zM576 408l-1 5q-3 14 -12.5 21.5t-19.5 4.5l-25 -8q-10 -3 -14.5 -15t-1.5 -25l1 -6q1 -3 4 -2l67 21q3 1 2 4zM535 266q12 -22 28 -27
t28 8.5t12 39.5q0 2 -1.5 3t-2.5 0l-62 -19q-1 0 -1.5 -1.5t-0.5 -3.5zM588 316l-4 20l-54 -17l5 -21q1 -3 2 -7l53 17zM579 355l-7 28l-54 -17l7 -28zM567 402v0q-2 12 -9.5 18.5t-14.5 4.5l-19 -6q-7 -2 -10 -12t0 -22v0zM544 273q14 -26 31 -21t17 36zM520 359l54 17
l-2 7l-54 -17zM535 299v-1q1 -3 2 -7l53 17q-1 4 -1 8zM547 267l45 14v7l-48 -15q2 -3 3 -6zM585 329l-1 7l-54 -17l1 -6zM577 362l-54 -17l2 -7l54 17zM565 408l-53 -16q1 -4 2 -7v0l53 17v0q0 3 -2 6zM527 450q3 1 4.5 2.5t1.5 3.5q-1 3 -8 1q-3 -1 -5 -3t-1 -3q0 -3 8 -1
zM584 215q3 1 5 2.5t2 2.5q-1 3 -8 1q-3 -1 -5 -2.5t-2 -2.5q1 -4 8 -1zM518 257q0 -3 1.5 -5t3.5 -2q3 1 1 9q-1 4 -2.5 6t-2.5 1q-3 0 -1 -9zM616 289q0 -4 1.5 -6t3.5 -1q2 0 0 9q0 3 -1.5 5t-2.5 2q-3 -1 -1 -9zM487 385q1 -3 2.5 -5.5t2.5 -1.5q3 1 1 9q-1 3 -2 5t-3 2
q-3 -1 -1 -9zM586 415q0 -3 1.5 -5t3.5 -2q3 1 1 9q-1 4 -2.5 6t-2.5 2q-3 -1 -1 -10zM563 261v5l-107 27l-1 -4zM541 310v5l-107 27l-1 -4zM531 356l1 5l-108 27l-1 -4zM469 285q-10 1 -14 -5.5t-9 -5.5l-51 13q-7 2 -6 9l5 23q1 7 8 5l52 -13q4 -1 5.5 -10t10.5 -11z
M447 334q-10 1 -14 -5.5t-9 -5.5l-51 13q-7 2 -6 9l5 23q1 7 8 5l52 -13q4 -1 5.5 -10t10.5 -11zM437 380q-10 1 -14 -5.5t-9 -5.5l-51 13q-7 2 -6 8l5 24q2 7 8 5l52 -13q4 -1 6 -10t10 -11zM444 294v1q0 2 -2 2l-43 11v0q-2 0 -3 -2v0q0 -2 2 -3l43 -11v0q2 0 3 2z
M422 343v1q0 2 -2 2l-43 11v0q-2 0 -3 -2v0q0 -2 2 -3l43 -11v0q2 0 3 2zM412 389v1q0 2 -2 2l-43 11v0q-2 0 -3 -2v0q0 -2 2 -3l43 -11v0q2 0 3 2zM567 258l2 9q1 4 -3 4v0q0 1 -1 1q-2 0 -3 -3l-2 -10v0q0 -3 3 -4v0h1q3 0 3 3zM545 307l2 9q1 3 -3 4q0 1 -1 1q-2 0 -3 -3
l-2 -10q-1 -3 3 -4v0h1q3 0 3 3zM535 352l2 10q1 3 -3 4v0h-1q-2 0 -3 -2l-2 -10v0q0 -3 3 -4v0h1q3 0 3 2zM586 269l-3 3l80 85l3 -3zM583 323l-3 4l80 85l2 -3zM570 369l-2 3l79 85l3 -3zM655 343q9 6 15.5 2.5t9.5 0.5l39 41q5 6 0 11l-15 17q-4 5 -9 0l-38 -41
q-3 -3 -0.5 -12t-3.5 -16zM652 398q9 6 15.5 2.5t9.5 0.5l38 41q5 5 1 10l-15 18q-4 5 -9 0l-39 -41q-3 -4 0 -12.5t-4 -15.5zM640 443q8 6 15 2.5t9 0.5l39 41q5 6 1 11l-15 17q-5 5 -10 0l-38 -41q-3 -3 -0.5 -12t-3.5 -16zM673 365v0q-1 2 0 4l32 34q2 2 4 0v0
q1 -2 -1 -4l-31 -34q-2 -2 -4 0zM670 420q-2 2 0 4l32 34q2 2 3 0v0q2 -2 0 -4l-32 -34q-1 -2 -3 0zM658 465v0q-2 2 0 4l31 34q2 2 4 0v0q1 -2 0 -4l-32 -34q-2 -2 -3 0zM584 263l-6 7q-2 2 0 5v0q3 3 5 0l6 -6q2 -3 0 -6v0q-3 -3 -5 0zM580 318l-5 6q-3 3 0 6v0q3 3 5 0
l5 -7q3 -3 0.5 -5.5t-5.5 0.5zM568 363l-6 6q-2 3 1 6v0q2 3 5 0l5 -7q3 -2 0 -5v0q-3 -3 -5 0zM407 856q22 0 37.5 -15.5t15.5 -37.5t-15.5 -37.5t-37.5 -15.5t-37.5 15.5t-15.5 37.5t15.5 37.5t37.5 15.5zM505 854q8 0 14 -4q8 8 19 8v0q9 0 16.5 -6t9.5 -15q10 -3 13 -12
h3q8 0 14.5 -6t6.5 -15t-6.5 -15t-14.5 -6q-6 0 -10 3q-2 -7 -8 -11.5t-12 -4.5v0q-9 0 -15 7q-6 -7 -15 -7v0v0q-8 0 -14 6q-7 -7 -16 -7v0v0q-9 0 -15 6h-5q-10 0 -17.5 7t-7.5 17.5t7.5 18t17.5 7.5h2q2 12 11 20.5t22 8.5zM283 811q8 0 15 -4q7 8 18 8v0q10 0 17 -6
t9 -14q10 -3 14 -13h2q9 0 15 -6t6 -15t-6 -15t-15 -6q-5 0 -10 3q-2 -7 -8 -11t-12 -4v0v0q-9 0 -15 6q-6 -6 -15 -6v0v0q-8 0 -14 5q-6 -7 -16 -7v0v0q-8 0 -14 6h-6q-10 0 -17.5 7t-7.5 17.5t7.5 18t17.5 7.5h2q2 12 11 20.5t22 8.5z" />
    <glyph glyph-name="sea__easyiconnet" unicode="&#xe621;" 
d="M512 896q104 0 199 -40.5t163.5 -109t109 -163.5t40.5 -199t-40.5 -199t-109 -163.5t-163.5 -109t-199 -40.5t-199 40.5t-163.5 109t-109 163.5t-40.5 199t40.5 199t109 163.5t163.5 109t199 40.5zM197 374v-7q0 -18 4 -36h1q18 -105 96 -177.5t185 -82.5h1q4 -1 5 -1h3
h5h2h1h4t5 -1h3v0q2 0 7 1h1q17 0 32 1l-23 -1h6h2l4 1q106 10 184 81.5t96 175.5q3 10 5 34v0v1.5v1.5v2q4 44 -9 92v2q-26 103 -111 170.5t-194 67.5q-112 0 -198.5 -70.5t-109.5 -177.5v-1v-1l-1 -2v-2q-5 -19 -6 -52v-9v-1v-9zM259 376v-6q0 -14 3 -29v0
q15 -84 78 -142.5t148 -66.5h1h5h2q0 -1 4 -1h1h1h4h1.5h2h2.5v0h3h3h1h5h2q3 1 4 1h2h4q84 8 147 66t78 141q2 8 3 27h1v3v1v0v1q3 35 -7 73l-1 2q-21 83 -89 137t-156 54q-90 0 -159.5 -56.5t-87.5 -142.5l-1 -1v-1v-1l-1 -2q-4 -16 -4 -42v-7v0v-8zM321 378v-5
q1 -10 3 -21v0q11 -64 58.5 -108t111.5 -50h1h3h2h3h0.5h1h1.5h1.5h1.5h1h1.5h0.5v0h4h1h4h1h4h1q1 0 3 1q64 5 111 48.5t58 106.5q2 6 3 21v0v2v1q2 27 -5 55l-1 1q-15 63 -66.5 103.5t-117.5 40.5q-68 0 -120 -42.5t-66 -107.5v0l-1 -1v-1v-1q-3 -12 -3 -31q-1 -3 -1 -6v0
v0v-6zM399 381v-3q0 -7 1 -13v0q7 -38 35 -64t66 -30h1h2h1h2h1h1h2h1h1h2v0h2h1h1h1h1h2q38 4 66 29.5t34 63.5q1 3 2 12v0v0.5v0.5v1q2 16 -3 33v1q-10 37 -40.5 61t-69.5 24q-41 0 -72 -25t-39 -64v0v-1v0v-1q-2 -7 -2 -19v-3v0v0v-3zM936 602q8 0 15 -3q7 5 18 5h5
q39 -79 48 -170q-14 53 -22.5 78.5t-11.5 29t-7 3.5q-9 0 -15 4q-6 -4 -15 -4q-8 0 -14 4q-7 -5 -16 -5q-8 0 -15 4h-5q-10 0 -17.5 5t-7.5 12t7.5 12t17.5 5h2q2 8 11 14t22 6zM630 749q12 0 24 -4q12 8 30 8q15 0 27 -6t16 -16q16 -4 22 -14h3h1q14 0 24 -7t10 -16.5
t-10 -16.5t-24 -7q-9 0 -17 3q-7 -17 -33 -17q-14 0 -24 7q-10 -7 -25 -7q-13 0 -23 6q-10 -7 -25 -7t-25 6h-8v0q-17 0 -29 8t-12 19.5t12 19.5t29 8h3q2 14 17.5 23.5t36.5 9.5zM527 813l21 1q4 -1 14.5 -5.5t16.5 -5.5q9 0 9 4q-7 -1 -9 5q-2 4 2 7.5t15 11.5
q17 11 12 22q-2 -4 -12 -9q-4 -2 -8 -5.5t-9 -8.5l-7 -7q-8 -8 -15 -6q-22 4 -30 -4zM300 725l21 1q4 -1 14.5 -5.5t16.5 -5.5q9 0 9 4q-8 -1 -9 5q-2 4 2 7.5t15 11.5q16 11 12 22q-2 -4 -12 -9q-4 -2 -8 -6t-9 -8.5t-7 -6.5q-8 -8 -15 -6q-23 4 -30 -4zM0 372h1024
q-3 -102 -44 -194.5t-109.5 -159.5t-162 -106.5t-196.5 -39.5t-196.5 39.5t-162 106.5t-109.5 159.5t-44 194.5v0zM852 327q-1 4 1.5 11t6.5 15.5t6 13.5q1 6 -1 14.5t-6 13.5l-3 5q13 -6 38 7l26 9q-19 17 -37.5 19t-28.5 -4l-9 -6q-15 12 -32 27q-17 16 -45 33
q-9 10 -9 14q0 3 2.5 6.5t5 6t4.5 5t1 4.5t-6 3q-24 5 -74 -17q-53 -1 -88 -29q-12 -10 -14 -20t2 -15l5 -5q-3 -2 -8 -6t-11 -13t-3 -16q1 -3 3 -4q1 -1 5 -2q9 -1 51 16q15 6 31 11q2 -11 8 -17q5 -6 10 -8.5t8 -2.5t4 2q0 1 -3 11t-1 20q14 2 29 2q-20 -6 -11 -14
q9 -7 20 -13t14 -3q1 1 -1 6t-5.5 12.5t-4.5 12.5q3 1 7 1q20 0 43 -6t37 -12l13 -6q-6 -12 -6 -25t3.5 -22.5t9 -18t9 -12zM629 428zM549 346q59 0 100.5 -12.5t41.5 -30.5t-41.5 -30.5t-100.5 -12.5t-101 12.5t-42 30.5t42 30.5t101 12.5zM782 296q77 0 131.5 -3.5
t54.5 -8.5t-54.5 -8.5t-131.5 -3.5t-131 3.5t-54 8.5t54 8.5t131 3.5zM968 150q-1 -1 -2 -3l-1 -2q-36 -10 -171 -10q-73 0 -125 3.5t-52 9t52 9.5t125 4q147 0 174 -11zM125 293q43 0 72.5 -3t29.5 -7q0 -10 -102 -10t-102 10t102 10zM335 172q227 0 227 -8t-227 -8t-227 8
t227 8zM283 125q167 0 167 -7.5t-167 -7.5t-167 7.5t167 7.5zM526 79q185 0 185 -9t-185 -9t-185 9t185 9zM470 332l-10.5 -6t-19 -13t-3.5 -16t31 -16q1 -1 2 -1q-8 2 -15 14q-11 18 15 38zM512 293l7.5 -5t16.5 -9.5t26 -3t37 12.5l2 1l-1.5 -0.5l-4.5 -1.5t-7.5 -1.5
t-10 -1.5t-11.5 -1.5t-12.5 0t-13.5 1.5t-14.5 3.5t-13.5 5.5zM609 318q-1 0 -9.5 7t-19.5 12t-33 2t-49 -20l5 2t10 3.5l5 1.5q26 17 67 3q12 -4 24 -11z" />
    <glyph glyph-name="sky__easyiconnet" unicode="&#xe623;" 
d="M512 896q139 0 257 -68.5t186.5 -186.5t68.5 -257t-68.5 -257t-186.5 -186.5t-257 -68.5t-257 68.5t-186.5 186.5t-68.5 257t68.5 257t186.5 186.5t257 68.5zM298 493q0 -117 82.5 -199.5t199.5 -82.5t199.5 82.5t82.5 199.5t-82.5 199.5t-199.5 82.5t-199.5 -82.5
t-82.5 -199.5zM428 712q6 0 6 -6.5t-6 -6.5t-6 6.5t6 6.5zM634.5 746q3.5 0 3.5 -3.5t-3.5 -3.5t-3.5 3.5t3.5 3.5zM514.5 858q5.5 0 5.5 -5.5t-5.5 -5.5t-5.5 5.5t5.5 5.5zM838.5 35q3.5 0 3.5 -3.5t-3.5 -3.5t-3.5 3.5t3.5 3.5zM244 46q4 0 4 -3.5t-4 -3.5v0q-3 0 -3 3.5
t3 3.5v0zM616 -81zM942 407v0q3 0 3 -3.5t-3 -3.5v0q-4 0 -4 3.5t4 3.5zM885 473q3 0 3 -3.5t-3 -3.5v0q-4 0 -4 3.5t4 3.5v0zM905.5 328q3.5 0 3.5 -4v0q0 -3 -3.5 -3t-3.5 3v0q0 4 3.5 4zM698 75v0q3 0 3 -3.5t-3 -3.5v0q-4 0 -4 3.5t4 3.5zM170.5 682q3.5 0 3.5 -4v0
q0 -3 -3.5 -3t-3.5 3v0q0 4 3.5 4zM320 777q3 0 3 -3.5t-3.5 -3.5t-3.5 4v0v0q0 3 4 3v0zM43.5 400q3.5 0 3.5 -3.5t-3.5 -3.5t-3.5 3.5t3.5 3.5zM195 290v0q3 0 3 -3.5t-3 -3.5v0q-4 0 -4 3.5t4 3.5v0zM210 163v0q3 0 3 -3.5t-3 -3.5v0q-4 0 -4 3.5t4 3.5v0zM789 743z
M832 683v0q6 0 10 -4t4 -9.5t-4 -9.5t-10 -4v0q-6 0 -10 4t-4 9.5t4 9.5t10 4zM375.5 6q6.5 0 6.5 -6.5t-6.5 -6.5t-6.5 6.5t6.5 6.5zM887.5 228q10.5 0 18 -7t7.5 -17.5t-7.5 -18t-18 -7.5t-17.5 7.5t-7 18t7 17.5t17.5 7zM199.5 504q6.5 0 11.5 -4.5t5 -11.5v0v0
q0 -7 -5 -11.5t-11.5 -4.5t-11 4.5t-4.5 11.5v0q0 7 4.5 11.5t11 4.5zM281 657q6 0 6 -6.5t-6 -6.5t-6 6.5t6 6.5v0zM677.5 729q66.5 0 114 -47.5t47.5 -114t-47.5 -113.5t-114 -47t-113.5 47t-47 113.5t47 114t113.5 47.5zM677.5 709q58.5 0 100 -41.5t41.5 -100
t-41.5 -99.5t-100 -41t-99.5 41t-41 99.5t41 100t99.5 41.5zM743 692q47 -25 66 -73q-5 4 -9 6.5t-8 3.5t-6 1h-6h-6v0q-16 0 -27.5 11t-11.5 28v0q0 13 8 24v-1zM581 606q16 0 27.5 -11.5t11.5 -27.5t-11.5 -27.5t-27.5 -11.5t-27.5 11.5t-11.5 27.5t11.5 27.5t27.5 11.5z
M687 603q16 0 27.5 -11.5t11.5 -27.5t-11.5 -27.5t-27.5 -11.5t-27.5 11.5t-11.5 27.5t11.5 27.5t27.5 11.5zM146 26q45 59 87 104q18 18 45.5 20.5t47.5 -11.5q171 -112 256 -262q-33 -5 -70 -5q-106 0 -200 40.5t-166 113.5zM300 149q14 -3 26 -10q171 -112 256 -262
q-33 -5 -70 -5q-116 0 -220 49q10 7 16 13t10.5 15t3 20t-8.5 24q-41 75 -15 150q1 4 2 6v0zM543 -127q92 226 266 420q10 11 21 17q136 -95 192 -248q-25 -12 -99 -52.5t-120 -63t-120 -46t-140 -27.5zM859 8q28 68 -15 91q-21 11 -28 37.5t-1.5 60.5t12 58t15.5 47
q129 -96 182 -245q-17 10 -31.5 15t-28.5 2.5t-23 -3.5t-23 -11.5t-19 -14.5t-20.5 -19t-19.5 -18zM312 419q5 0 5 -5t-5 -5v0q-6 0 -6 5t6 5v0zM466 332q6 0 6 -5v0q0 -5 -5.5 -5t-5.5 5t5 5v0zM436 436q6 0 6 -5t-6 -5v0q-5 0 -5 5t5 5v0zM584 327v0q5 0 5 -5t-5 -5v0
q-5 0 -5 5t5 5zM320 292v0q5 0 5 -5t-5 -5v0q-6 0 -6 5t6 5zM519 161v0q5 0 5 -5t-5 -5v0q-6 0 -6 5t6 5zM627 244v0q6 0 6 -5.5t-6 -5.5v0q-5 0 -5 5.5t5 5.5zM432 227q5 0 5 -5.5t-5 -5.5t-5 5v0q0 6 5 6v0zM105 320v0q6 0 6 -5t-6 -5v0q-5 0 -5 5t5 5v0zM729 337v0
q5 0 5 -5t-5 -5v0q-5 0 -5 5t5 5zM416 585v0q5 0 5 -5t-5 -5v0q-5 0 -5 5t5 5zM130 570q5 0 5 -5.5t-5 -5.5v0q-6 0 -6 5.5t6 5.5v0z" />
    <glyph glyph-name="shore__easyiconnet" unicode="&#xe624;" 
d="M512 896q104 0 199 -40.5t163.5 -109t109 -163.5t40.5 -199t-40.5 -199t-109 -163.5t-163.5 -109t-199 -40.5t-199 40.5t-163.5 109t-109 163.5t-40.5 199t40.5 199t109 163.5t163.5 109t199 40.5zM424 826q6 0 12 -3q6 6 14 6v0q17 0 20 -16q9 -3 11 -11q1 1 2 1v0
q7 0 11.5 -4.5t4.5 -11.5t-4.5 -12t-11.5 -5v0q-4 0 -8 2q-3 -11 -16 -11v0q-7 0 -11 4q-5 -4 -12 -4v0q-7 0 -11 4q-5 -5 -12 -5v0v0q-7 0 -12 4h-4q-8 0 -14 5.5t-6 14t6 14t14 5.5h2q1 10 8 16.5t17 6.5zM539.5 835q28.5 0 49 -20t20.5 -49t-20.5 -49t-49 -20t-49 20
t-20.5 49t20.5 49t49 20zM287 260q-17 -3 -37 -3v0q-56 0 -96 29t-40 70q0 33 27.5 59t70.5 35q5 14 17 25q-45 22 -45 61q0 31 30 53t73 22t74 -23q25 13 56 13q26 0 49 -9q10 23 37 38t62 15q40 0 69.5 -20t32.5 -49q8 1 18 1q42 0 72 -22t30 -53q0 -8 -2 -15q4 1 10 1
q43 0 73 -22t30 -53q0 -16 -9 -31q22 -10 35.5 -27t13.5 -37q0 -31 -30.5 -53t-72.5 -22q-36 0 -64 16h-484v1zM0 390h1024v-3v-3q0 -104 -40.5 -199t-109 -163.5t-163.5 -109t-199 -40.5t-199 40.5t-163.5 109t-109 163.5t-40.5 199v3v3v0zM762.5 238q185.5 0 185.5 -10
t-185.5 -10t-185.5 10t185.5 10zM949 116l-3 -4q-33 -8 -172 -8q-73 0 -125 3t-52 7.5t52 8t125 3.5q151 0 175 -10zM26 222q-2 6 -3 10q31 3 82 3q102 0 102 -8t-102 -8q-48 0 -79 3zM315 135q227 0 227 -7t-227 -7t-227 7t227 7zM263 96q167 0 167 -6.5t-167 -6.5
t-167 6.5t167 6.5zM506 57q185 0 185 -7.5t-185 -7.5t-185 7.5t185 7.5zM676 769q7 0 12 -2q6 6 14 6q17 0 21 -16q8 -3 11 -11q0 1 1 1q7 0 12 -5t5 -11.5t-5 -11.5t-12 -5v0q-4 0 -8 2q-3 -12 -15 -12v0v0q-7 0 -12 5q-5 -5 -12 -5v0v0q-6 0 -11 5q-5 -6 -12 -6v0v0
q-7 0 -12 5h-4v0q-8 0 -13.5 5.5t-5.5 13.5t5.5 14t13.5 6h2q1 9 8.5 15.5t16.5 6.5zM482 400l-14 -36l-33 -31q1 -1 4 -1.5t8.5 -2.5t8 -5t0.5 -6q-3 -4 -11.5 -10t-15.5 -10l-7 -4l-27 1l-5 -21q-8 -2 -35 -10l-7 -11l-52 -1l2 -17l-64 2q-12 -19 -21 -19l-58 3l-17 -13
q-65 2 -70 -1q-2 -2 -4.5 -6t-4.5 -8l-1 -3l-18 -4q-40 93 -40 196q6 7 7 5t36 -2t86 1.5t100.5 3t85.5 3t35 1.5zM46 297q3 4 8 10t17 15t22 8l-79 18l-12 -4q3 -47 15 -90q3 18 11 28.5t12.5 12.5t5.5 2zM384 384q-23 -36 -23 -46v30v0v0l-49 -1q4 3 10.5 8.5t20.5 13
t20 4.5zM1 411q5 -2 8 -3l3 -1q0 1 -10 17v8l36 -18q-10 6 -12 22q-1 4 2 4q1 0 2 -1q10 -6 32 -19v0q2 2 5.5 4.5t13.5 8.5t13.5 7t4.5 -1q0 -2 -1.5 -5t-3.5 -5l-4 -4l-3 -3l-1 -2l43 20q13 4 16 1q2 -3 -0.5 -5t-7 -2.5t-4.5 -1.5q-1 -1 1.5 -3t7.5 -2.5t12 2.5
q27 12 37 9q1 -1 0 -2q-4 -6 -2.5 -9t8.5 -1q4 1 17 -2q9 -2 9 0q0 1 -1 2q-3 4 -11 13l-5 7q1 0 2 -1q21 -13 22 -16q1 -2 23 16q5 4 5 3q-1 -5 -6 -11t-8.5 -10t-2 -4t7.5 1.5t14 4t12 3.5q10 2 11 -2q0 -2 -4 -5q-3 -1 2 -1q32 4 38 4q17 2 26 0.5t9.5 -4.5t-0.5 -6t4 -1
q38 13 39 13q7 0 11 -1t5 -2v-1q-16 1 -20 -5q-1 -3 9 -4l15 -1q31 -1 34 -1q12 3 26.5 -4t16.5 -14q-2 3 -12 3q8 -10 9 -25q-12 12 -15 18l7 -16q-12 11 -18.5 13.5t-16 -0.5t-13.5 -4q-9 -1 -13.5 0.5t-7.5 1.5l-2 -2q4 -3 -5 -5q-7 -1 -21 -1.5t-26 -2.5q-6 -1 -11 -2.5
t-7.5 -2t-4 -1.5l-1.5 -1v-1l24 2q2 -1 -4 -4q-27 -12 -64 -15q-9 -1 -14.5 -2.5t-7.5 -2.5l-2 -1q-1 0 -2.5 3.5t-6.5 3.5q-2 1 -9 -5.5t-19 -7.5q-15 -1 -18 0t-7 7q-5 7 -59 -11q-5 -1 -10 -1.5t-7.5 0t-8.5 3t-10 3.5q-44 13 -42 4q3 -4 15 -11q6 -3 6 -4q1 -1 -6 0
q-32 6 -69 -1q-10 -4 -10 -7q3 -2 52 -19q15 -5 15 -7q0 -1 -3 -2q-11 -2 -61 -16q-11 50 -11 106v0q0 14 1 27v0zM452 299q-5 1 -14 4l-11 1q-3 -10 -13 -10q-4 0 -9 2t-6.5 3t-4.5 -2q-1 -2 -2.5 -8t-4 -9.5t-8.5 -3.5q-22 -3 -30 -13q-4 -6 -8 -5.5t-13 -0.5
q-6 -2 -14 -1.5t-12 1t-7 -0.5q-1 -1 -5.5 -9t-11.5 -8q-4 -1 -15.5 -1.5t-15.5 -1.5q-4 0 -9 1t-7.5 0.5t-3.5 -2.5q-5 -10 -15 -12q-28 -4 -32 -3q-22 3 -26 0q-4 -2 -7 -4.5t-3.5 -3t-2 -1.5t-2 -0.5t-5 0.5h-9.5l-24.5 2.5t-25.5 -0.5q-6 -2 -15 -7.5t-15 -9.5t-7 -4h-1
q3 -7 6 -13q3 1 6 1q4 0 8 6.5t12 6.5q11 0 28.5 6.5t33.5 2.5q11 -5 18.5 -0.5t10.5 4.5q24 0 46 2q24 2 32 10q3 3 6.5 4t13 1.5t16.5 1.5q32 4 42 14q2 2 3 2h6.5t12.5 2q11 2 15.5 6.5t11.5 6.5q8 3 14.5 3.5t13.5 2.5q5 1 8 4.5t4 6t2 6.5t1 5q1 2 13 5t20 2q5 0 7.5 2
t3.5 4v2zM672.5 330q21.5 0 21.5 -5t-21.5 -5t-21.5 5t21.5 5zM863 347q32 -13 34 -29q1 -13 -38.5 -24t-76.5 -15h-1q143 10 137 37q-3 13 -48 29l-4 1l-3 1v0zM483 347q-32 -13 -34 -29q-1 -13 38 -24t77 -15v0q-142 10 -136 37q2 13 48 29l4 1l3 1v0zM673 353
q82 0 139.5 -8.5t57.5 -19.5t-57.5 -19t-139.5 -8t-140 8t-58 19t58 19.5t140 8.5zM673 342q69 0 117.5 -5t48.5 -12t-48.5 -12t-117.5 -5t-118 5t-49 12t49 12t118 5zM673 337q53 0 90.5 -3.5t37.5 -8.5t-37.5 -8t-90.5 -3t-90.5 3t-37.5 8t37.5 8.5t90.5 3.5zM672.5 334
q90.5 0 90.5 -8.5t-90.5 -8.5t-90.5 8.5t90.5 8.5zM661 449l7 3q1 -1 2 -4t3 -8t7 -10q4 -4 18 -10t27 -15t18 -22q13 -33 3 -60h-144q-3 9 -3 20q-8 51 26 73q8 5 12 9t7.5 9.5t4.5 6.5q7 10 12 8zM734 382q0 -1 -1 -3q-8 -14 -21 -23q2 1 -1 0q-4 -3 -8 -5q-14 -5 -16 -5
l6 1l-9 -3q-11 -2 -24 -2h-2q-12 0 -24 2q-10 1 -24 7q1 -1 3 -2l9 -3q16 -6 34 -6q12 -1 23 1q12 2 22 7q12 6 20 15q11 11 16 26q2 6 0 1q2 5 2 10zM734 330l-2 -2q-1 -2 -2 -3q-20 -21 -46 -32l44 30q18 20 26 46zM736 356q-1 -1 -2 -3l-1 -1t-1 -1.5t-1 -1.5v-1
q-5 -6 -11 -9v-1q-4 -5 -15 -10q-14 -7 -30 -8l22 3q17 6 30 19q-1 -1 -1 -2v0q1 2 2 3t3 4.5t4 6.5l-3 -6zM637 323q-4 1 -23 8l12 -6q5 -2 6 -2h1h4zM678 422q-12 3 -15 -8q-1 -4 1.5 -8t7.5 -6q11 -3 14 7.5t-8 14.5zM678 421q-10 2 -13 -7v-3q0 -7 7 -10h3q10 0 10 10
q0 7 -7 10v0zM680 419h-1q-4 0 -5 -3v-1q0 -4 3 -5h2q3 0 4 3v2q0 3 -3 4v0zM662 440l-2 9l-2 -5q1 -3 4 -4zM655 379q-1 -25 -19 -31q-15 -6 -20.5 -10t-5.5 -13q0 -1 1 -2h84q0 10 -4 23q-13 39 -21 45q-5 3 -9.5 -1t-5.5 -11zM743 323q9 26 -4 59q-5 13 -18 22t-27 15
t-18 9q-4 5 -6.5 10.5t-3 8.5t-2.5 3h-1h-1q3 2 6 2q1 -1 2 -4t3 -8t7 -10q4 -4 18 -10t27 -15t18 -22q13 -33 3 -60h-3zM102 440q13 10 28 13q-2 -12 8 -13.5t24 5.5q16 -8 27 -22q-17 16 -17 19v7q0 1 -2 2q-33 19 -68 0q-2 -1 -2 -2v-7q0 -1 0.5 -1.5t1.5 -0.5zM166 438
v-47q0 -5 -3 -8t-7 -3h-40q-4 0 -7 3t-3 8v47q0 1 15.5 0t29 -1.5t15.5 1.5zM101 451q34 -24 70 0q1 0 1.5 -0.5t0.5 -1.5v-7q0 -1 -2 -2q-34 -19 -70 0q-2 1 -2 2v7q0 1 1 1.5zM168 439q10 -15 -2.5 -28t-29.5 -13q-18 0 -30 13t-1 29v0q0 1 0.5 1.5t1.5 0.5q2 0 2 -2
t-2 -2q-9 -15 2 -26t27 -11q15 0 26.5 11t2.5 25q-1 1 -1 3v0v0q0 2 2 2l1 -1l1 -1v0v-1v0v0zM228 401l3 -15q15 -2 17 -6v-7q-14 0 -20.5 3.5t-15.5 2.5h-1q-2 0 -4 2q-2 3 0 6q3 7 6 13l3 6zM315 632l-8 9l6 6q2 2 4 5t6 0q13 17 13 8q1 -12 -14 -24q-4 -3 -7 -4zM252 396
l2 -15q15 -2 17 -6v-8q-14 1 -20.5 4.5t-15.5 2.5v0q-3 0 -5 2q-2 3 0 6q4 7 6.5 13t2.5 5zM232 631l-21 -32l19 -119v-1l-16 -77l17 -7l27 80v2l-3 107zM253 597l-4 9l-36 6q-6 -10 -6.5 -19.5t3.5 -20t9.5 -20t12.5 -24t10 -27.5q2 -5 -7 -105l20 -8q4 25 10 57t7 40
t0.5 27.5t-5 35.5t-14.5 49zM259 723l-3 -7q-3 2 -10 6t-10 5l5 9zM232 725l-10 -51q-1 -3 -0.5 -13t1.5 -10l86 -15l2 9l-64 18q-1 0 0 2v1l5 40zM251 601l-40 8q4 23 2 43.5t0 40t10 25.5q1 0 4 2.5t5.5 4.5t3.5 3q3 -3 8.5 -5.5t8.5 -4.5t6 -4.5t4 -5.5q6 -30 -4 -59
t-8 -48zM251 717q-15 2 -15.5 -37t5.5 -61q4 -3 20.5 -1t36 6.5t18.5 5.5l-6 8q-3 0 -17 -1.5t-24.5 -1.5t-10.5 4q3 27 1.5 53t-8.5 25zM275 758v-6l-3 -3l6 -11l-1 -2l-4 -1v-4v-1h-3l2 -1v-2l-2 -1v-3l-1 -3l-7 -1q-3 1 -10.5 5t-12.5 6q-20 38 2 46q12 5 22 -1t12 -17z
M246 760q-1 0 -2.5 -1t-3 -3.5t-1.5 -3.5l4 -7l-1 -11l-4 -1q-2 2 -4 5.5t-5.5 14t1.5 15.5q12 20 36 5q12 -7 9 -12q-2 -2 -9.5 -2h-13.5zM358 684l5 4q0 1 0.5 1.5l1.5 1.5l5 4h2q0 1 1 1l9 6v1v0h1l1 1q3 2 3 3l3 1l-2 -3v-1v0l1 -1v0v0v-1v0h0.5t0.5 -0.5v-0.5zM358 683
l1 1l5 3q0 2 2 3l4 4q2 1 3 0l10 7v2h1q3 2 3 3v-2v0v0l1 -1v-1h1q0 -1 1 -1v-1v0v0l1 -1v0v0l-2 -2q-1 0 -1 -1h-2l-9 -7l-2 -2l-5 -3q-1 -1 -2 -1h-1l-6 -4zM388 705v0v0zM390 701v0l1 -1v0v0v0v-2l-0.5 -0.5t-1.5 -0.5v0l-1 -1v0q0 -1 -1 -1v0l-9 -6l-2 -2q0 -1 -1 -1
l-4 -3q-1 -1 -3 -1v0h-1l-6 -4h-1v0l-3 5v1h1zM576 842h2q1 -1 0 -2l-1 -1l-2 -2v0v0l-63 -46q0 -1 -1 -2l-9 -7h-1h-1l-8 -6v0l-36 -27q0 -1 -1 -1q0 -1 -1 -1h1l-12 -9h-2v0v0l-36 -27l-1 2v3l-1 1h1l34 25h1v1l12 9h1h1l45 33l1 1l10 7v0l1 1l65 47q0 1 1 1zM305 647v0
l5 3l1 1v-1l4 -5l1 -1h-1q-3 -3 -6 -4q-1 0 -3 2v0.5t-1 0.5q-2 3 0 4zM516 781q-3 4 -4 3l-6 4v-1l6 -3q0 -2 2 -4q4 -4 5 -3.5t-3 4.5zM577 833q-2 1 -3 1q-2 1 -3 1v0q1 0 3 -2q0 -1 2 -2q2 -2 3 -1t-2 3zM386 705l2 1l16 11q0 1 1 0l3 -4q-1 -1 -8.5 -7.5t-8.5 -6.5z
M313 653l-2 -2q-2 -1 0 -3l3 -4v0l2 1l46 34q0 1 -1 2q-2 3 -2.5 3.5t-4.5 -3.5zM573.5 838l0.5 -1l-6 -5l-1 1t-1 2l6 4q1 0 1.5 -1zM376 690l138 91l66 50v-1q2 -5 22.5 -79t41.5 -170t18 -131h-2q4 47 -33 199.5t-48 178.5l-64 -49l-138 -91zM310.5 659.5q2.5 1.5 6 -3.5
t1 -6.5t-6 3.5t-1 6.5zM315 662.5q2 1.5 5.5 -3t1 -6.5t-5.5 3t-1 6.5zM319.5 665.5q2.5 1.5 6 -3.5t1 -6.5t-6 3.5t-1 6.5zM323.5 668q2.5 2 6 -3t1 -6.5t-6 3t-1 6.5zM226 753q-3 5 -5 11l4 -9v0q-9 15 -13 34l12 -33l-1 2v0l-0.5 0.5l-0.5 0.5v0q-1 3 -1 6l1 -4
q-2 4 -2 9l1 -8v1v1v0l-1 1v0q0 3 -1 7l1 -6v1v0v1v1v0v2v-1v1v1v0v0v1v0v2v0v1v0v1v0v0.5v0.5h1v1v0v1v0l1 1v0v0v1v0h0.5h0.5v1v0v0q0 1 1 1v0v0.5v0.5v0l0.5 0.5l0.5 0.5v0h0.5h0.5v1v0v0v0v0q1 0 1 1q7 5 15.5 5t14.5 -6l8 -8q102 -108 237 -168q-112 74 -170 109.5
t-68 39t-15 -0.5q-12 -6 -23 -9v3zM248 728h-1v0v0v0h-1h-1v0l-1 -1v0v0h-1h-1v0v0h-1v0l-1 -1h-1v0v0v0h-1v0h-1h-1h-1h-1v0l-1 -1v0h-1h-1h-1v0h-1v0h-1h-1h-1v0h-1v0h-1h-1v0h-1h-1v0h-1v0l-1 1v0h-1v0h-1h-1v0h-1v0h-1q-6 2 -12 5l11 -4v0v0h-1v0v0q-5 2 -9 5l8 -4v0
h-0.5h-0.5v0v0l-4 2l3 -2l-1 1q15 14 16 17l2 4q11 3 23 9v0v0v0v1v0v0v0v0v0v0v0v0v0v0v0v0v0v0v0v0v0v0v0v0v0v0v0v0v0v0v0v0v0v0v0v0v0v0v0v0v0h1v0v0v0v0v0q11 7 18 16q2 -2 10.5 1.5t14.5 6t7 -2.5q-2 1 -5 0.5t-9 -7t-9 -19.5q-3 -19 -29 -27z" />
    <glyph glyph-name="tractor__easyiconnet" unicode="&#xe625;" 
d="M512 896q104 0 199 -40.5t163.5 -109t109 -163.5t40.5 -199t-40.5 -199t-109 -163.5t-163.5 -109t-199 -40.5t-199 40.5t-163.5 109t-109 163.5t-40.5 199t40.5 199t109 163.5t163.5 109t199 40.5zM387 848q10 0 18 -4q9 9 23 9v0q11 0 19.5 -7t11.5 -18q13 -4 17 -16
q0 1 2 1q11 0 18.5 -7.5t7.5 -18t-7.5 -18t-18.5 -7.5q-6 0 -12 3q-5 -18 -24 -18v0q-11 0 -18 7q-8 -7 -18 -7v0v0q-11 0 -18 7q-7 -8 -19 -8v0q-10 0 -18 7q-3 -1 -6 -1v0q-13 0 -21.5 9t-8.5 21.5t8.5 21.5t21.5 9h3q1 15 12.5 25t26.5 10zM66 635q106 10 220 -21l10 61
l-49 -47l-13 14l69 67l14 -14h9l13 14l50 -48v-1l20 -18l-14 -14l-50 49l16 -90q93 -40 163 -109q104 -102 -209 -210q-114 -39 -278 -76q-37 92 -37 192q0 135 66 251zM325 725l70 67l13 -14l-69 -67zM316 725l-69 67l-14 -14l70 -67zM979 593h-26q-12 0 -34 -0.5t-83.5 -9
t-117 -23t-120.5 -46.5t-108 -75q-80 -80 147 -147q136 -41 360 -72q27 80 27 164q0 110 -45 209zM512 471q146 0 277.5 -40t230.5 -112q-16 -124 -87 -226.5t-182 -161.5t-239 -59t-239 59t-182 161.5t-87 226.5q99 72 230.5 112t277.5 40zM512 362q138 0 263.5 -36.5
t223.5 -101.5q-51 -155 -185 -253.5t-302 -98.5t-302 98.5t-185 253.5q98 65 223.5 101.5t263.5 36.5zM512 207q238 0 429 -103q-70 -107 -183.5 -169.5t-245.5 -62.5t-245.5 62.5t-183.5 169.5q191 103 429 103zM512 85q191 0 357 -68q-71 -69 -163 -107t-194 -38t-194 38
t-163 107q166 68 357 68zM588 680l189 36l29 -150l-190 -36zM638 654l102 19l15 -81l-102 -19zM599 679l168 32l56 -5l-71 88l-86 18l-82 -50l-24 -106zM710 649l6 -5l-14 -17l19 -10l-4 -7l-21 11l-15 -18l-6 6l14 16l-19 10l4 7l20 -11zM674.5 769q9.5 2 17 -3.5
t9.5 -14.5t-3.5 -17t-14.5 -10t-17 3.5t-9.5 15t3.5 17t14.5 9.5zM310 434h-13v-44h13v44zM320 453h-33q-5 0 -5 -5v-19q0 -6 5 -6h33q5 0 5 6v19q0 5 -5 5zM704 531h-205l-85 -232h188h187zM694 517l75 -204h-167h-168l75 204h185zM537 517h21l76 -202h-20zM574 517h80
l77 -202h-80zM653 440h-12q-1 -1 -1 -6l-8 -62h-61q-6 0 -6 -6v-4q0 -6 6 -6h6v-36h50v36h17q6 0 6 6v13l9 59q1 6 -6 6zM502 385l-26 -13l-1 -12l32 16l11 -27q2 -5 8 -5q2 0 3 1q6 2 6 8q0 1 -1 3l-30 69q-2 5 -8 5q-2 0 -3 -1q-5 -2 -5 -8v-3zM653 440h-12q-1 -1 -1 -6
l-8 -62h-3l6 -16h9q6 0 6 6v13l9 59q0 3 -2 4.5t-4 1.5zM613 372h-21l20 -52h15v15zM723 549h-247q-3 0 -5 -2t-1 -4l11 -21q3 -5 5 -5h227q3 0 6 5l9 21q1 2 -1 4t-4 2zM616 320h-381q-9 0 -12.5 -4t-3 -9t2 -15t1.5 -17v-43v-5h-61v-27h74q14 -14 33 -14h547l-64 174
l-97 -1zM178 196h58q14 -10 33 -10h547l-11 22h-627v-12zM172 249h-28q-6 0 -6 -6v-59q0 -6 6 -6h28q6 0 6 6v59q0 6 -6 6zM453 414l-210 -17q-54 -4 -54 -89v-19v-6q0 -33 5.5 -42t33.5 -9h175q30 0 52 24t22 58v19q0 10 1.5 25.5t2 24t-1.5 17t-8 12t-18 2.5zM190 326
q-1 -8 -1 -18v-19v-6q0 -33 5.5 -42t33.5 -9h175q30 0 52 24t22 58v19q0 10 2 30t1 28l-231 -16q-46 -3 -59 -49zM429 538v-240q0 -4 3 -7.5t8 -3.5t8 3.5t3 7.5v257q0 14 -12 23.5t-22 6.5v-23q5 1 8.5 -1.5t3.5 -6.5v-7.5v-8.5zM704 327q-12 -1 -22 -3l5 9q-2 4 -5 3
l-7 -2q-3 -1 -3 -5v-8q-20 -7 -37 -20l20 21q-3 4 -6 2l-6 -3q-3 -2 -2 -6l3 -8q-23 -15 -38 -38l21 35q-4 3 -6 0l-5 -5q-3 -2 -1 -6l5 -7q-19 -20 -28 -47l12 40q-4 2 -6 -1l-4 -6q-2 -3 1 -6l6 -6q-11 -20 -14 -43l1 32q-5 1 -6 -2l-2 -7q-1 -3 3 -6l7 -4q-3 -12 -4 -26
l-6 13q-5 -1 -5 -4l-1 -7q0 -4 5 -5l7 -2q0 -7 1 -13l-7 -3q-4 -2 -4 -5l1 -7q1 -4 6 -4h8q5 -19 15 -34l-18 17q-3 -3 -2 -6l3 -6q2 -3 6 -2l8 2q13 -24 34 -39l-32 22q-3 -4 -1 -7l5 -5q2 -3 6 -1l7 4q20 -20 46 -30l-40 14q-2 -4 1 -6l6 -4q2 -2 6 1l6 5q20 -13 45 -17
l-35 3q-1 -4 2 -6l7 -2q3 -1 5 2l5 7q15 -5 32 -6l-19 -5q0 -5 4 -5l7 -1q3 0 4 4l3 7h6v0h7l2 -7q2 -4 5 -4l7 1q4 0 4 5l1 8q17 3 32 11l-15 -15q2 -3 5 -2l7 2q3 2 2 6l-1 8q23 11 39 30l-22 -29q4 -3 6 -1l6 4q3 2 1 6l-3 8q21 18 33 43l-17 -38q4 -3 6 0l5 6q2 2 -1 6
l-5 6q16 22 21 48l-6 -39q4 -1 6 2l3 6q1 4 -2 6l-7 5q7 18 8 38l4 -26q5 1 5 4l2 7q0 3 -4 5l-7 3q0 7 1 13l7 2q5 1 4 5v7q0 3 -5 4l-8 1q-2 15 -7 28l12 -11q4 2 3 5l-2 7q-1 3 -6 3l-8 -1q-9 22 -25 38l25 -21q4 3 2 6l-4 6q-2 3 -6 1l-8 -2q-17 22 -41 36l37 -20
q3 4 0 6l-5 5q-2 3 -6 0l-7 -5q-20 17 -46 24l38 -8q2 4 -1 6l-7 3q-3 2 -6 -2l-5 -6q-19 9 -41 11l30 2q0 4 -4 5l-6 2q-4 1 -6 -3l-3 -7q-10 2 -22 2l7 7q-1 5 -4 5h-7q-4 0 -5 -5zM709.5 271q-28.5 0 -48.5 -20t-20 -48.5t20 -48.5t48.5 -20t48.5 20t20 48.5t-20 48.5
t-48.5 20zM338 271q-5 -1 -10 -1l-3 5q-2 3 -4 3l-6 -2q-2 0 -2 -4v-6q-16 -6 -29 -16l16 17q-3 3 -5 1l-5 -2q-2 -2 -1 -5l1 -6q-17 -12 -29 -30l16 27q-3 3 -5 1l-4 -4q-2 -2 0 -5l3 -5q-14 -17 -21 -38l9 32q-3 1 -5 -1l-3 -5q-1 -2 1 -5l5 -4q-9 -16 -11 -34v26
q-3 0 -4 -3l-2 -5q-1 -2 3 -4l5 -3q-3 -10 -3 -22l-5 11q-4 -1 -4 -3v-6q0 -3 3 -4l6 -1q0 -6 1 -10l-6 -3q-3 -1 -3 -4l1 -5q1 -3 4 -3h7q4 -16 12 -29l-14 15q-3 -2 -2 -4l2 -5q2 -3 5 -2l6 2q11 -19 28 -32l-26 18q-3 -3 -1 -5l4 -4q1 -2 5 0l5 2q16 -16 38 -24l-33 12
q-1 -3 1 -5l4 -3q2 -2 5 1l5 4q16 -10 35 -14l-27 3q-1 -4 1 -5l6 -2q2 -1 4 2l4 5q4 -1 9 -2l1 -6q0 -4 3 -4l5 -1q3 0 4 3l2 6h5.5h4.5l2 -6q2 -3 4 -3l6 1q2 0 3 4v6q13 3 25 8l-11 -11q2 -3 4 -2l5 2q3 1 2 5l-1 6q19 9 32 24l-18 -23q2 -3 4 -1l5 3q2 2 1 5l-3 6
q18 15 27 35l-14 -31q3 -2 5 0l3 4q2 2 0 5l-4 5q12 17 16 38l-4 -31q3 -1 4 2l3 5q1 2 -2 5l-5 3q5 14 6 30l3 -20q4 0 4 3l1 5q1 3 -2 4l-6 3v10l6 1q4 1 4 4l-1 6q0 2 -3 3l-7 1q-1 11 -5 22l9 -9q3 2 2 4l-1 5q-1 3 -5 3l-6 -1q-8 18 -20 31l20 -17q3 2 1 4l-3 5
q-1 2 -5 1l-5 -2q-14 17 -32 28l28 -15q2 3 0 5l-4 4q-2 2 -5 0l-5 -4q-17 14 -38 19l32 -7q1 3 -2 5l-4 2q-3 2 -5 -1l-4 -5q-15 7 -32 9l23 1q0 4 -3 4l-5 2q-3 0 -4 -3l-3 -5q-8 1 -17 1l5 6q0 3 -3 3h-6q-2 0 -3 -3zM342.5 227q-22.5 0 -38.5 -16t-16 -38.5t16 -38.5
t38.5 -16t38.5 16t16 38.5t-16 38.5t-38.5 16zM781 366h-129l-96 -96l15 -6l84 83l121 2l74 -67l9 11zM514.5 853q21.5 0 37 -15.5t15.5 -37t-15.5 -37t-37 -15.5t-37 15.5t-15.5 37t15.5 37t37 15.5zM487 695h16q3 0 10.5 -3.5t11.5 -3.5q6 0 6 2q-5 0 -6 4t12 14
q12 8 9 15q-2 -2 -9 -6q-3 -2 -6 -4.5t-6 -6t-5 -4.5q-6 -6 -11 -5q-16 4 -22 -2z" />
    </font>
</defs>
</svg>
